<svg width="16" height="16" viewBox="0 0 16 16" fill="none" xmlns="http://www.w3.org/2000/svg">
<path d="M14.6473 12.22C14.6473 12.46 14.594 12.7066 14.4807 12.9466C14.3673 13.1866 14.2207 13.4133 14.0273 13.6266C13.7007 13.9866 13.3407 14.2466 12.934 14.4133C12.534 14.58 12.1007 14.6666 11.634 14.6666C10.954 14.6666 10.2273 14.5066 9.46065 14.18C8.69398 13.8533 7.92732 13.4133 7.16732 12.86C6.40065 12.3 5.67398 11.68 4.98065 10.9933C4.29398 10.3 3.67398 9.57331 3.12065 8.81331C2.57398 8.05331 2.13398 7.29331 1.81398 6.53998C1.49398 5.77998 1.33398 5.05331 1.33398 4.35998C1.33398 3.90665 1.41398 3.47331 1.57398 3.07331C1.73398 2.66665 1.98732 2.29331 2.34065 1.95998C2.76732 1.53998 3.23398 1.33331 3.72732 1.33331C3.91398 1.33331 4.10065 1.37331 4.26732 1.45331C4.44065 1.53331 4.59398 1.65331 4.71398 1.82665L6.26065 4.00665C6.38065 4.17331 6.46732 4.32665 6.52732 4.47331C6.58732 4.61331 6.62065 4.75331 6.62065 4.87998C6.62065 5.03998 6.57398 5.19998 6.48065 5.35331C6.39398 5.50665 6.26732 5.66665 6.10732 5.82665L5.60065 6.35331C5.52732 6.42665 5.49398 6.51331 5.49398 6.61998C5.49398 6.67331 5.50065 6.71998 5.51398 6.77331C5.53398 6.82665 5.55398 6.86665 5.56732 6.90665C5.68732 7.12665 5.89398 7.41331 6.18732 7.75998C6.48732 8.10665 6.80732 8.45998 7.15398 8.81331C7.51398 9.16665 7.86065 9.49331 8.21398 9.79331C8.56065 10.0866 8.84732 10.2866 9.07398 10.4066C9.10732 10.42 9.14732 10.44 9.19398 10.46C9.24732 10.48 9.30065 10.4866 9.36065 10.4866C9.47398 10.4866 9.56065 10.4466 9.63398 10.3733L10.1407 9.87331C10.3073 9.70665 10.4673 9.57998 10.6207 9.49998C10.774 9.40665 10.9273 9.35998 11.094 9.35998C11.2207 9.35998 11.354 9.38665 11.5007 9.44665C11.6473 9.50665 11.8007 9.59331 11.9673 9.70665L14.174 11.2733C14.3473 11.3933 14.4673 11.5333 14.5407 11.7C14.6073 11.8666 14.6473 12.0333 14.6473 12.22Z" stroke="white" stroke-miterlimit="10"/>
</svg>
