<svg width="16" height="17" viewBox="0 0 16 17" fill="none" xmlns="http://www.w3.org/2000/svg">
<g clip-path="url(#clip0_489_12653)">
<path d="M16 8.49002C16 12.9 12.4292 16.49 8.03433 16.5C3.62967 16.51 0 12.89 0 8.49002C0 4.07002 3.59044 0.490021 8.03433 0.500021C12.4684 0.510021 16 4.05002 16 8.49002ZM9.02514 4.86002C9.05457 4.64002 9.084 4.44002 9.10362 4.24002C9.16248 3.63002 9.07419 3.55002 8.47578 3.57002C8.02452 3.59002 8.04414 3.92002 8.05395 4.20002C8.06376 4.66002 7.96566 4.90002 7.45555 5.01002C6.49417 5.21002 5.98406 5.85002 5.89577 6.75002C5.81729 7.61002 6.22931 8.30002 7.10239 8.72002C7.57327 8.95002 8.07357 9.11002 8.54445 9.33002C8.94666 9.52002 9.22134 9.82002 9.11343 10.31C9.00552 10.79 8.64255 10.95 8.21091 11C7.52422 11.08 6.88657 10.95 6.26855 10.61C6.16064 10.55 5.9252 10.55 5.85653 10.62C5.61128 10.9 5.79767 11.68 6.14102 11.83C6.48436 11.98 6.84733 12.07 7.22011 12.2C7.19068 12.62 7.16125 13.04 7.13182 13.51C7.41631 13.53 7.64194 13.57 7.85776 13.54C7.96566 13.52 8.14224 13.36 8.13243 13.28C8.04414 12.36 8.53464 12 9.33906 11.91C9.39791 11.9 9.45677 11.86 9.51563 11.83C10.2808 11.43 10.683 10.8 10.6732 9.91002C10.6634 9.06002 10.2318 8.51002 9.49601 8.17002C9.20172 8.03002 8.8878 7.92002 8.5935 7.80002C8.34825 7.70002 8.103 7.61002 7.87738 7.48002C7.54384 7.29002 7.31821 7.02002 7.4065 6.59002C7.49479 6.15002 7.82833 5.99002 8.21091 6.01002C8.6916 6.04002 9.16248 6.16002 9.64316 6.25002C9.80993 6.28002 9.96689 6.37002 10.1238 6.43002C10.5162 5.54002 10.3004 5.23002 9.02514 4.86002Z" fill="#00A19A"/>
</g>
<defs>
<clipPath id="clip0_489_12653">
<rect width="16" height="16" fill="white" transform="translate(0 0.5)"/>
</clipPath>
</defs>
</svg>
