<svg width="37" height="36" viewBox="0 0 37 36" fill="none" xmlns="http://www.w3.org/2000/svg">
                                        <circle cx="18.4994" cy="17.5307" r="17.5307" fill="#00A3FF"></circle>
                                        <path fill-rule="evenodd" clip-rule="evenodd" d="M18.5567 15.4173L18.5935 16.0239L17.9804 15.9496C15.7486 15.6649 13.7989 14.6993 12.1435 13.0775L11.3342 12.2729L11.1257 12.8671C10.6843 14.1917 10.9663 15.5906 11.886 16.5314C12.3765 17.0514 12.2661 17.1257 11.42 16.8162C11.1257 16.7171 10.8682 16.6429 10.8437 16.68C10.7579 16.7666 11.0521 17.8932 11.2851 18.3389C11.604 18.9578 12.2539 19.5644 12.9651 19.9234L13.5659 20.2082L12.8547 20.2206C12.168 20.2206 12.1435 20.2329 12.2171 20.4929C12.4623 21.2976 13.431 22.1518 14.5101 22.5232L15.2704 22.7831L14.6082 23.1793C13.6272 23.7487 12.4746 24.0706 11.3219 24.0954C10.7701 24.1078 10.3164 24.1573 10.3164 24.1944C10.3164 24.3182 11.8124 25.0115 12.683 25.2838C15.2949 26.0885 18.3973 25.7419 20.7271 24.3677C22.3826 23.3897 24.038 21.4461 24.8105 19.5644C25.2274 18.5617 25.6443 16.7295 25.6443 15.8506C25.6443 15.2811 25.6811 15.2068 26.3678 14.5259C26.7725 14.1298 27.1526 13.6965 27.2262 13.5727C27.3488 13.3375 27.3365 13.3375 26.7112 13.5479C25.6689 13.9193 25.5217 13.8698 26.0367 13.3127C26.4169 12.9166 26.8706 12.1986 26.8706 11.9881C26.8706 11.951 26.6866 12.0129 26.4782 12.1243C26.2575 12.2481 25.767 12.4338 25.3991 12.5452L24.7369 12.7557L24.1361 12.3471C23.805 12.1243 23.339 11.8767 23.0938 11.8024C22.4684 11.6291 21.5119 11.6539 20.9479 11.8519C19.4151 12.409 18.4463 13.8451 18.5567 15.4173Z" fill="white"></path>
                                    </svg>