<svg width="16" height="16" viewBox="0 0 16 16" fill="none" xmlns="http://www.w3.org/2000/svg">
<g clip-path="url(#clip0_2636_3364)">
<path d="M16 7.99002C16 12.4 12.4292 15.99 8.03433 16C3.62967 16.01 0 12.39 0 7.99002C0 3.57002 3.59044 -0.0099791 8.03433 2.08988e-05C12.4684 0.0100209 16 3.55002 16 7.99002ZM9.02514 4.36002C9.05457 4.14002 9.084 3.94002 9.10362 3.74002C9.16248 3.13002 9.07419 3.05002 8.47578 3.07002C8.02452 3.09002 8.04414 3.42002 8.05395 3.70002C8.06376 4.16002 7.96566 4.40002 7.45555 4.51002C6.49417 4.71002 5.98406 5.35002 5.89577 6.25002C5.81729 7.11002 6.22931 7.80002 7.10239 8.22002C7.57327 8.45002 8.07357 8.61002 8.54445 8.83002C8.94666 9.02002 9.22134 9.32002 9.11343 9.81002C9.00552 10.29 8.64255 10.45 8.21091 10.5C7.52422 10.58 6.88657 10.45 6.26855 10.11C6.16064 10.05 5.9252 10.05 5.85653 10.12C5.61128 10.4 5.79767 11.18 6.14102 11.33C6.48436 11.48 6.84733 11.57 7.22011 11.7C7.19068 12.12 7.16125 12.54 7.13182 13.01C7.41631 13.03 7.64194 13.07 7.85776 13.04C7.96566 13.02 8.14224 12.86 8.13243 12.78C8.04414 11.86 8.53464 11.5 9.33906 11.41C9.39791 11.4 9.45677 11.36 9.51563 11.33C10.2808 10.93 10.683 10.3 10.6732 9.41002C10.6634 8.56002 10.2318 8.01002 9.49601 7.67002C9.20172 7.53002 8.8878 7.42002 8.5935 7.30002C8.34825 7.20002 8.103 7.11002 7.87738 6.98002C7.54384 6.79002 7.31821 6.52002 7.4065 6.09002C7.49479 5.65002 7.82833 5.49002 8.21091 5.51002C8.6916 5.54002 9.16248 5.66002 9.64316 5.75002C9.80993 5.78002 9.96689 5.87002 10.1238 5.93002C10.5162 5.04002 10.3004 4.73002 9.02514 4.36002Z" fill="#31343E"/>
</g>
<defs>
<clipPath id="clip0_2636_3364">
<rect width="16" height="16" fill="white"/>
</clipPath>
</defs>
</svg>
