<svg width="18" height="19" viewBox="0 0 18 19" fill="none" xmlns="http://www.w3.org/2000/svg">
<g clip-path="url(#clip0_489_12674)">
<path d="M16.5728 13.616C16.5728 11.0597 16.5728 8.53652 16.5728 6.0001C12.7005 6.0001 8.84148 6.0001 4.9494 6.0001C4.9494 7.11268 4.9494 8.21202 4.9494 9.33123C4.46042 9.3511 4.01108 9.37096 3.52209 9.39745C3.52209 9.28487 3.52209 9.16566 3.52209 9.04646C3.52209 7.42394 3.52209 5.80143 3.52209 4.17891C3.52209 2.99348 4.34808 2.29149 5.57055 2.47692C5.58377 2.80805 5.57716 3.1458 5.61681 3.47692C5.68949 4.05308 6.16526 4.49679 6.71372 4.53653C7.34808 4.58288 7.88993 4.22527 8.03531 3.62924C8.09478 3.39745 8.06835 3.1458 8.08156 2.90739C8.08817 2.76831 8.08156 2.62262 8.08156 2.46368C9.87231 2.46368 11.6234 2.46368 13.4274 2.46368C13.4274 2.71533 13.4274 2.96699 13.4274 3.21864C13.434 3.99348 13.9626 4.54977 14.6829 4.54315C15.4098 4.54315 15.9252 3.99348 15.9318 3.21202C15.9318 2.97361 15.9318 2.72858 15.9318 2.49679C17.0155 2.23189 17.9868 2.96699 17.9868 4.04646C17.9935 7.17891 17.9935 10.3114 17.9868 13.4438C17.9868 14.3312 17.3789 15.0133 16.4604 15.0266C14.2137 15.0663 11.967 15.0398 9.72033 15.0398C9.68729 15.0398 9.66086 15.02 9.608 15.0001C9.608 14.5564 9.608 14.1061 9.608 13.6226C11.9208 13.616 14.2402 13.616 16.5728 13.616ZM8.99346 14.5299C9.01328 12.0398 6.99786 10.0001 4.50007 9.98686C2.0287 9.97361 0.0132813 11.9869 6.54791e-05 14.4835C-0.0131504 16.9736 1.97584 18.9935 4.46703 19.0001C6.945 19.0133 8.97363 17.0133 8.99346 14.5299ZM6.42958 14.4173C6.53531 14.4173 6.65425 14.4173 6.75337 14.4504C7.01108 14.5167 7.14985 14.7087 7.12341 14.9604C7.09698 15.212 6.93839 15.3908 6.66747 15.3975C5.92738 15.4041 5.1939 15.4107 4.45381 15.3975C4.16967 15.3908 4.00447 15.2054 3.99786 14.9273C3.98465 13.9008 3.98465 12.8743 3.99786 11.8478C3.99786 11.5365 4.21592 11.3445 4.50667 11.3577C4.79081 11.3643 4.96923 11.563 4.96923 11.8809C4.97584 12.7087 4.96923 13.5299 4.96923 14.4107C5.48465 14.4107 5.96042 14.4107 6.42958 14.4173ZM15.4626 0.854406C15.4494 0.33785 15.1388 0.00010157 14.6895 0.00010157C14.2269 0.00010157 13.923 0.324605 13.923 0.847784C13.9164 1.64249 13.9164 2.43719 13.9296 3.23189C13.9362 3.7352 14.2335 4.0597 14.6697 4.07295C15.1124 4.08619 15.4494 3.7352 15.4626 3.23851C15.4692 2.84116 15.4626 2.44381 15.4626 2.04646C15.4626 1.64911 15.4692 1.25176 15.4626 0.854406ZM6.07936 3.28487C6.08597 3.74845 6.40976 4.07295 6.83927 4.06633C7.26218 4.06633 7.59918 3.7352 7.60579 3.27825C7.6124 2.43719 7.61901 1.60275 7.60579 0.761691C7.59918 0.31136 7.24896 -0.00652095 6.81945 0.00010157C6.39654 0.00672409 6.09258 0.317982 6.07936 0.768313C6.07275 1.18553 6.07936 1.60937 6.07936 2.02659C6.07936 2.44381 6.07275 2.86103 6.07936 3.28487ZM11.7027 12.5763C11.7622 12.5763 11.8679 12.4438 11.8679 12.371C11.8877 12.0398 11.8745 11.7087 11.8745 11.3776C11.8745 11.0398 11.8745 10.7087 11.8745 10.371C11.1014 10.371 10.3943 10.371 9.66747 10.371C9.66747 11.0994 9.66747 11.8147 9.66747 12.5829C10.3679 12.5895 11.0353 12.5895 11.7027 12.5763ZM8.37892 7.04646C7.63222 7.04646 6.90535 7.04646 6.18509 7.04646C6.18509 7.78818 6.18509 8.49679 6.18509 9.22527C6.91857 9.22527 7.63222 9.22527 8.37892 9.22527C8.37892 8.48355 8.37892 7.77494 8.37892 7.04646ZM11.8679 7.03984C11.1344 7.03984 10.4142 7.03984 9.68068 7.03984C9.68068 7.77494 9.68068 8.49679 9.68068 9.22527C10.4142 9.22527 11.1212 9.22527 11.8679 9.22527C11.8679 8.48355 11.8679 7.77494 11.8679 7.03984ZM15.3239 10.3776C14.5904 10.3776 13.8767 10.3776 13.1631 10.3776C13.1631 11.1193 13.1631 11.8412 13.1631 12.5763C13.8899 12.5763 14.5904 12.5763 15.3239 12.5763C15.3239 11.8213 15.3239 11.0994 15.3239 10.3776ZM13.1631 7.03321C13.1631 7.76831 13.1631 8.49017 13.1631 9.21865C13.8965 9.21865 14.6102 9.21865 15.3305 9.21865C15.3305 8.49017 15.3305 7.77494 15.3305 7.03321C14.5904 7.03321 13.8833 7.03321 13.1631 7.03321Z" fill="#00A19A"/>
</g>
<defs>
<clipPath id="clip0_489_12674">
<rect width="18" height="19" fill="white"/>
</clipPath>
</defs>
</svg>
