<svg width="18" height="20" viewBox="0 0 18 20" fill="none" xmlns="http://www.w3.org/2000/svg">
<g clip-path="url(#clip0_2636_3385)">
<path d="M16.5728 14.116C16.5728 11.5597 16.5728 9.03652 16.5728 6.5001C12.7005 6.5001 8.84148 6.5001 4.9494 6.5001C4.9494 7.61268 4.9494 8.71202 4.9494 9.83123C4.46042 9.8511 4.01108 9.87096 3.52209 9.89745C3.52209 9.78487 3.52209 9.66566 3.52209 9.54646C3.52209 7.92394 3.52209 6.30143 3.52209 4.67891C3.52209 3.49348 4.34808 2.79149 5.57055 2.97692C5.58377 3.30805 5.57716 3.6458 5.61681 3.97692C5.68949 4.55308 6.16526 4.99679 6.71372 5.03653C7.34808 5.08288 7.88993 4.72527 8.03531 4.12924C8.09478 3.89745 8.06835 3.6458 8.08156 3.40739C8.08817 3.26831 8.08156 3.12262 8.08156 2.96368C9.87231 2.96368 11.6234 2.96368 13.4274 2.96368C13.4274 3.21533 13.4274 3.46699 13.4274 3.71864C13.434 4.49348 13.9626 5.04977 14.6829 5.04315C15.4098 5.04315 15.9252 4.49348 15.9318 3.71202C15.9318 3.47361 15.9318 3.22858 15.9318 2.99679C17.0155 2.73189 17.9868 3.46699 17.9868 4.54646C17.9935 7.67891 17.9935 10.8114 17.9868 13.9438C17.9868 14.8312 17.3789 15.5133 16.4604 15.5266C14.2137 15.5663 11.967 15.5398 9.72033 15.5398C9.68729 15.5398 9.66086 15.52 9.608 15.5001C9.608 15.0564 9.608 14.6061 9.608 14.1226C11.9208 14.116 14.2402 14.116 16.5728 14.116ZM8.99346 15.0299C9.01328 12.5398 6.99786 10.5001 4.50007 10.4869C2.0287 10.4736 0.0132813 12.4869 6.54791e-05 14.9835C-0.0131504 17.4736 1.97584 19.4935 4.46703 19.5001C6.945 19.5133 8.97363 17.5133 8.99346 15.0299ZM6.42958 14.9173C6.53531 14.9173 6.65425 14.9173 6.75337 14.9504C7.01108 15.0167 7.14985 15.2087 7.12341 15.4604C7.09698 15.712 6.93839 15.8908 6.66747 15.8975C5.92738 15.9041 5.1939 15.9107 4.45381 15.8975C4.16967 15.8908 4.00447 15.7054 3.99786 15.4273C3.98465 14.4008 3.98465 13.3743 3.99786 12.3478C3.99786 12.0365 4.21592 11.8445 4.50667 11.8577C4.79081 11.8643 4.96923 12.063 4.96923 12.3809C4.97584 13.2087 4.96923 14.0299 4.96923 14.9107C5.48465 14.9107 5.96042 14.9107 6.42958 14.9173ZM15.4626 1.35441C15.4494 0.83785 15.1388 0.500102 14.6895 0.500102C14.2269 0.500102 13.923 0.824605 13.923 1.34778C13.9164 2.14249 13.9164 2.93719 13.9296 3.73189C13.9362 4.2352 14.2335 4.5597 14.6697 4.57295C15.1124 4.58619 15.4494 4.2352 15.4626 3.73851C15.4692 3.34116 15.4626 2.94381 15.4626 2.54646C15.4626 2.14911 15.4692 1.75176 15.4626 1.35441ZM6.07936 3.78487C6.08597 4.24845 6.40976 4.57295 6.83927 4.56633C7.26218 4.56633 7.59918 4.2352 7.60579 3.77825C7.6124 2.93719 7.61901 2.10275 7.60579 1.26169C7.59918 0.81136 7.24896 0.493479 6.81945 0.500102C6.39654 0.506724 6.09258 0.817982 6.07936 1.26831C6.07275 1.68553 6.07936 2.10937 6.07936 2.52659C6.07936 2.94381 6.07275 3.36103 6.07936 3.78487ZM11.7027 13.0763C11.7622 13.0763 11.8679 12.9438 11.8679 12.871C11.8877 12.5398 11.8745 12.2087 11.8745 11.8776C11.8745 11.5398 11.8745 11.2087 11.8745 10.871C11.1014 10.871 10.3943 10.871 9.66747 10.871C9.66747 11.5994 9.66747 12.3147 9.66747 13.0829C10.3679 13.0895 11.0353 13.0895 11.7027 13.0763ZM8.37892 7.54646C7.63222 7.54646 6.90535 7.54646 6.18509 7.54646C6.18509 8.28818 6.18509 8.99679 6.18509 9.72527C6.91857 9.72527 7.63222 9.72527 8.37892 9.72527C8.37892 8.98355 8.37892 8.27494 8.37892 7.54646ZM11.8679 7.53984C11.1344 7.53984 10.4142 7.53984 9.68068 7.53984C9.68068 8.27494 9.68068 8.99679 9.68068 9.72527C10.4142 9.72527 11.1212 9.72527 11.8679 9.72527C11.8679 8.98355 11.8679 8.27494 11.8679 7.53984ZM15.3239 10.8776C14.5904 10.8776 13.8767 10.8776 13.1631 10.8776C13.1631 11.6193 13.1631 12.3412 13.1631 13.0763C13.8899 13.0763 14.5904 13.0763 15.3239 13.0763C15.3239 12.3213 15.3239 11.5994 15.3239 10.8776ZM13.1631 7.53321C13.1631 8.26831 13.1631 8.99017 13.1631 9.71865C13.8965 9.71865 14.6102 9.71865 15.3305 9.71865C15.3305 8.99017 15.3305 8.27494 15.3305 7.53321C14.5904 7.53321 13.8833 7.53321 13.1631 7.53321Z" fill="#31343E"/>
</g>
<defs>
<clipPath id="clip0_2636_3385">
<rect width="18" height="19" fill="white" transform="translate(0 0.5)"/>
</clipPath>
</defs>
</svg>
