<svg width="16" height="15" viewBox="0 0 16 15" fill="none" xmlns="http://www.w3.org/2000/svg">
<path d="M16 12.7282C15.4625 14.0258 14.5125 14.525 13.1125 14.5C9.55 14.4376 5.9875 14.4875 2.425 14.475C1.0125 14.475 0.0125 13.5018 0 12.1043C0 10.2576 0 8.41087 0 6.47683C0.2125 6.57665 0.375 6.62656 0.525 6.7139C2.7 7.84938 4.8875 8.95989 7.05 10.1203C7.7375 10.4947 8.2875 10.4822 8.9625 10.1078C11.1 8.94742 13.275 7.84938 15.425 6.72638C15.6125 6.62656 15.8 6.56417 15.9875 6.4893C16 8.57308 16 10.6444 16 12.7282ZM5.75 0.5C4.2625 1.08645 3.8125 2.24688 4.025 3.8066C3.3875 3.8066 2.825 3.73173 2.275 3.83155C1.7375 3.9189 1.2125 4.16845 0.6875 4.34314C0.8125 4.60517 0.875 4.66756 0.9625 4.71747C3.2125 5.89037 5.45 7.06328 7.7125 8.21123C7.8875 8.29857 8.2 8.26114 8.3875 8.1738C9.4625 7.63725 10.525 7.07576 11.6 6.51426C12.825 5.8779 14.05 5.22905 15.325 4.56774C14.3875 3.49465 13.1125 3.98128 11.975 3.74421C12.2125 2.19697 11.7125 1.08645 10.25 0.5C8.75 0.5 7.25 0.5 5.75 0.5ZM6.0625 3.76916C6.0375 3.6943 6.0125 3.65686 6.0125 3.61943C5.95 2.50891 5.9625 2.49643 7.05 2.49643C7.75 2.49643 8.4625 2.49643 9.1625 2.49643C9.9875 2.49643 9.9875 2.50891 10 3.33244C10 3.45722 10 3.582 10 3.78164C8.65 3.76916 7.35 3.76916 6.0625 3.76916Z" fill="#31343E"/>
</svg>
