<svg width="21" height="16" viewBox="0 0 21 16" fill="none" xmlns="http://www.w3.org/2000/svg">
<path d="M17.3818 7.93313L11.7245 2.2758C11.2038 1.75518 11.2038 0.911086 11.7244 0.390465C12.2451 -0.130155 13.0892 -0.130155 13.6098 0.390465L20.2096 6.99032C20.7303 7.51102 20.7303 8.35524 20.2096 8.87594L13.6098 15.4758C13.0892 15.9964 12.2451 15.9964 11.7244 15.4758C11.2038 14.9552 11.2038 14.1111 11.7244 13.5905L17.3818 7.93313Z" fill="#00A19A"/>
<path fill-rule="evenodd" clip-rule="evenodd" d="M0.333984 8C0.333984 7.26362 0.930938 6.66667 1.66732 6.66667H18.334C19.0704 6.66667 19.6673 7.26362 19.6673 8C19.6673 8.73638 19.0704 9.33333 18.334 9.33333H1.66732C0.930938 9.33333 0.333984 8.73638 0.333984 8Z" fill="#00A19A"/>
</svg>
