<svg width="21" height="16" viewBox="0 0 21 16" fill="none" xmlns="http://www.w3.org/2000/svg">
<path fill-rule="evenodd" clip-rule="evenodd" d="M3.00049 0C1.61978 0 0.400391 1.11929 0.400391 2.5V13.5C0.400391 14.8807 1.61978 16 3.00049 16H18.0005C19.3812 16 20.5005 14.8807 20.5005 13.5V2.5C20.5005 1.11929 19.3812 0 18.0005 0H3.00049ZM3.25723 3.44359C2.6437 3.22705 2.00039 3.6822 2.00039 4.33282C2.00039 4.73263 2.25252 5.08899 2.62953 5.22205L10.1676 7.88253C10.3829 7.95855 10.6178 7.95855 10.8332 7.88253L18.3712 5.22205C18.7483 5.08899 19.0004 4.73263 19.0004 4.33282C19.0004 3.6822 18.3571 3.22705 17.7436 3.44359L10.8332 5.88253C10.6178 5.95855 10.3829 5.95855 10.1676 5.88253L3.25723 3.44359Z" fill="white"/>
</svg>
