<svg width="11" height="16" viewBox="0 0 11 16" fill="none" xmlns="http://www.w3.org/2000/svg">
<path d="M5.49966 15.5C5.22694 15.1747 4.95652 14.8589 4.69297 14.5383C3.55397 13.1453 2.47457 11.7075 1.53954 10.1612C1.1064 9.44466 0.723678 8.69982 0.398251 7.92435C-0.160932 6.58788 -0.117389 5.25849 0.441794 3.95738C1.26911 2.02929 2.7152 0.871962 4.74338 0.560828C7.66535 0.112983 10.4131 2.18721 10.9288 5.1642C11.1007 6.16361 10.954 7.10408 10.569 8.0257C10.145 9.03924 9.60187 9.98443 9.00602 10.899C7.96557 12.4971 6.79907 13.9962 5.56153 15.4364C5.54778 15.4505 5.53174 15.467 5.49966 15.5ZM8.2612 5.68276C8.26349 4.12238 7.03054 2.85191 5.50882 2.84955C3.99169 2.84484 2.75187 4.11766 2.74957 5.67569C2.74728 7.24315 3.98253 8.51597 5.50882 8.51597C7.02595 8.51597 8.25891 7.24551 8.2612 5.68276Z" fill="#31343E"/>
</svg>
