<svg width="15" height="17" viewBox="0 0 15 17" fill="none" xmlns="http://www.w3.org/2000/svg">
<g clip-path="url(#clip0_489_12659)">
<path d="M7.51796 17C5.63098 16.9055 3.75137 16.8037 1.94547 16.2365C1.43687 16.0766 0.957759 15.8221 0.500756 15.553C0.146948 15.3422 0.00689887 14.9786 -0.000472135 14.5569C-0.00784314 13.379 -0.00784314 12.2083 0.515498 11.1031C1.13466 9.79427 2.11501 8.88537 3.5155 8.4491C3.65555 8.40547 3.88405 8.4491 4.00198 8.53636C6.16169 10.2015 9.05112 10.2233 11.1887 8.56544C11.373 8.42002 11.5204 8.42002 11.7121 8.49273C13.4664 9.18349 14.513 10.4632 14.8595 12.2665C15.0069 13.0518 14.9848 13.8807 14.9995 14.6878C15.0069 15.1749 14.6752 15.4876 14.2845 15.7203C13.4442 16.2293 12.5008 16.4692 11.5425 16.5928C10.2084 16.7746 8.85948 16.8691 7.51796 17ZM6.64818 0.116339C4.12729 0.574423 2.4467 3.09025 3.06587 5.48246C3.77348 8.23824 6.9209 9.70701 9.58184 8.52181C11.4983 7.65654 12.6187 5.67151 12.2501 3.78101C11.8153 1.55603 9.94302 0.0363559 7.62852 0C7.3042 0.0363559 6.9725 0.0581694 6.64818 0.116339Z" fill="#00A19A"/>
</g>
<defs>
<clipPath id="clip0_489_12659">
<rect width="15" height="17" fill="white"/>
</clipPath>
</defs>
</svg>
