<svg width="10" height="11" viewBox="0 0 10 11" fill="none" xmlns="http://www.w3.org/2000/svg">
<path d="M6.88964 11C6.27341 10.9909 5.70391 10.8091 5.14901 10.5637C4.41596 10.2364 3.76176 9.78494 3.20102 9.20013C2.37743 8.34565 1.58305 7.45783 0.960973 6.43366C0.484928 5.65493 0.131544 4.80954 0.0293256 3.8793C-0.131303 2.41577 0.371027 1.23707 1.46038 0.318956C1.60349 0.197753 1.78456 0.11291 1.95979 0.0462484C2.22264 -0.0507143 2.47965 0.00382725 2.6724 0.218963C3.17181 0.770438 3.60405 1.37343 3.83185 2.10368C3.95451 2.50365 3.98372 2.90968 3.66246 3.2339C3.46386 3.43388 3.24774 3.61872 3.02578 3.7884C2.5293 4.16716 2.41832 4.5641 2.687 5.13982C3.05791 5.9337 3.58945 6.60941 4.19984 7.22149C4.39551 7.41844 4.59995 7.60328 4.81023 7.78508C4.91537 7.87598 5.03219 7.95174 5.15193 8.01537C5.60461 8.25171 6.03101 8.15172 6.35226 7.74569C6.56546 7.47601 6.81079 7.25179 7.1262 7.11846C7.47375 6.97302 7.81837 6.98211 8.13086 7.20028C8.64196 7.5548 9.12676 7.94265 9.55024 8.40625C9.71087 8.58199 9.82769 8.78198 9.83937 9.03348C9.84813 9.21225 9.79848 9.37284 9.69042 9.5092C9.06251 10.297 8.27689 10.8091 7.29267 10.9667C7.15541 10.9879 7.01814 10.9879 6.88964 11ZM8.4346 2.37638C7.45038 1.4916 6.28801 1.10375 4.99714 1.028C4.99714 1.38252 4.99714 1.70673 4.99714 2.03701C6.07481 2.08852 7.06195 2.37032 7.85341 3.1642C8.63904 3.95506 8.97782 4.95498 9.08296 6.06096C9.38961 6.06096 9.69042 6.06096 10 6.06096C9.98248 4.91256 9.55608 3.38237 8.4346 2.37638ZM5.04387 3.08239C5.04387 3.40661 5.04387 3.73083 5.04387 4.06111C5.59877 4.08232 6.09526 4.21867 6.49829 4.61864C6.90132 5.01862 7.07363 5.52767 7.14373 6.09126C7.45622 6.09126 7.75996 6.09126 8.07245 6.09126C8.1075 4.48229 6.48953 2.88241 5.04387 3.08239Z" fill="black"/>
</svg>
