<svg width="20" height="20" viewBox="0 0 20 20" fill="none" xmlns="http://www.w3.org/2000/svg">
<path d="M0.0507812 11H5.52778C5.6989 14.1668 6.70833 17.2314 8.45278 19.88C6.26771 19.5368 4.25798 18.4791 2.7378 16.8725C1.21762 15.2658 0.272699 13.2007 0.0507812 11ZM0.0507812 9C0.272699 6.7993 1.21762 4.73417 2.7378 3.12751C4.25798 1.52084 6.26771 0.463218 8.45278 0.119995C6.70833 2.76861 5.6989 5.83314 5.52778 9H0.0507812ZM19.9508 9H14.4738C14.3027 5.83314 13.2932 2.76861 11.5488 0.119995C13.7338 0.463218 15.7436 1.52084 17.2638 3.12751C18.7839 4.73417 19.7289 6.7993 19.9508 9ZM19.9508 11C19.7289 13.2007 18.7839 15.2658 17.2638 16.8725C15.7436 18.4791 13.7338 19.5368 11.5488 19.88C13.2932 17.2314 14.3027 14.1668 14.4738 11H19.9518H19.9508ZM7.53078 11H12.4708C12.3062 13.6995 11.4561 16.3124 10.0008 18.592C8.54548 16.3124 7.69538 13.6995 7.53078 11ZM7.53078 9C7.69538 6.30051 8.54548 3.68756 10.0008 1.408C11.4561 3.68756 12.3062 6.30051 12.4708 9H7.53078Z" fill="white"/>
</svg>
