<svg width="42" height="43" viewBox="0 0 42 43" fill="none" xmlns="http://www.w3.org/2000/svg">
<g clip-path="url(#clip0_3045_12581)">
<path fill-rule="evenodd" clip-rule="evenodd" d="M19.1361 0.640625H22.8464C27.9421 0.640625 30.9199 1.38906 33.5633 2.80631C36.2067 4.22355 38.2927 6.29369 39.694 8.93712C41.1113 11.5805 41.8597 14.5583 41.8597 19.654V23.3484C41.8597 28.4441 41.1113 31.4219 39.694 34.0653C38.2768 36.7087 36.2067 38.7948 33.5633 40.1961C30.9199 41.6134 27.9421 42.3618 22.8464 42.3618H19.152C14.0563 42.3618 11.0785 41.6134 8.43509 40.1961C5.79172 38.7789 3.70566 36.7087 2.30435 34.0653C0.887098 31.4219 0.138672 28.4441 0.138672 23.3484V19.654C0.138672 14.5583 0.887098 11.5805 2.30435 8.93712C3.72159 6.29369 5.79172 4.20763 8.43509 2.80631C11.0626 1.38906 14.0563 0.640625 19.1361 0.640625Z" fill="#0068FF"/>
<path opacity="0.12" fill-rule="evenodd" clip-rule="evenodd" d="M41.8602 22.7383V23.348C41.8602 28.4436 41.1119 31.4214 39.6946 34.0648C38.2774 36.7082 36.2072 38.7943 33.5638 40.1957C30.9204 41.6129 27.9426 42.3614 22.8469 42.3614H19.1526C14.983 42.3614 12.2314 41.8602 9.92074 40.9016L6.11133 36.9789L41.8602 22.7383Z" fill="#001A33"/>
<path fill-rule="evenodd" clip-rule="evenodd" d="M6.53504 37.1149C8.48628 37.3306 10.9258 36.7742 12.658 35.9333C20.1796 40.0907 31.9372 39.8921 39.0542 35.3375C39.3302 34.9235 39.5881 34.4929 39.8274 34.0465C41.2499 31.3934 42.001 28.4048 42.001 23.2905V19.5827C42.001 14.4684 41.2499 11.4797 39.8274 8.82669C38.421 6.17366 36.3274 4.09598 33.6744 2.67357C31.0213 1.25116 28.0327 0.5 22.9184 0.5H19.1946C14.8388 0.5 12.0112 1.04831 9.6354 2.0951C9.50554 2.21139 9.37811 2.32967 9.25337 2.44993C2.28325 9.16905 1.75341 23.7338 7.66383 31.6457C7.67042 31.6574 7.67772 31.6691 7.68575 31.6811C8.59674 33.0235 7.71771 35.3729 6.34325 36.7473C6.1195 36.9552 6.19941 37.083 6.53504 37.1149Z" fill="white"/>
<path d="M17.2728 14.7812H9.1038V16.5329H14.7727L9.18334 23.4599C9.0082 23.7146 8.88086 23.9535 8.88086 24.4949V24.9408H16.588C16.9702 24.9408 17.2888 24.6224 17.2888 24.2402V23.3006H11.3332L16.588 16.708C16.6677 16.6125 16.811 16.4374 16.8747 16.3578L16.9066 16.31C17.2091 15.8641 17.2728 15.4819 17.2728 15.0201V14.7812Z" fill="#0068FF"/>
<path d="M27.6712 24.9408H28.8337V14.7812H27.082V24.3516C27.082 24.6701 27.3368 24.9408 27.6712 24.9408Z" fill="#0068FF"/>
<path d="M21.6841 17.043C19.4866 17.043 17.7031 18.8265 17.7031 21.024C17.7031 23.2215 19.4866 25.005 21.6841 25.005C23.8817 25.005 25.6652 23.2215 25.6652 21.024C25.6811 18.8265 23.8976 17.043 21.6841 17.043ZM21.6841 23.3648C20.3943 23.3648 19.3433 22.3138 19.3433 21.024C19.3433 19.7342 20.3943 18.6832 21.6841 18.6832C22.974 18.6832 24.025 19.7342 24.025 21.024C24.025 22.3138 22.9899 23.3648 21.6841 23.3648Z" fill="#0068FF"/>
<path d="M34.0089 16.9766C31.7955 16.9766 29.9961 18.776 29.9961 20.9894C29.9961 23.2029 31.7955 25.0023 34.0089 25.0023C36.2223 25.0023 38.0218 23.2029 38.0218 20.9894C38.0218 18.776 36.2223 16.9766 34.0089 16.9766ZM34.0089 23.3622C32.7032 23.3622 31.6522 22.3112 31.6522 21.0054C31.6522 19.6996 32.7032 18.6486 34.0089 18.6486C35.3147 18.6486 36.3657 19.6996 36.3657 21.0054C36.3657 22.3112 35.3147 23.3622 34.0089 23.3622Z" fill="#0068FF"/>
<path d="M24.7436 24.941H25.6832V17.2656H24.043V24.2564C24.043 24.6226 24.3614 24.941 24.7436 24.941Z" fill="#0068FF"/>
</g>
<defs>
<clipPath id="clip0_3045_12581">
<rect width="42" height="42" fill="white" transform="translate(0 0.5)"/>
</clipPath>
</defs>
</svg>
