<svg width="20" height="20" viewBox="0 0 20 20" fill="none" xmlns="http://www.w3.org/2000/svg">
<g clip-path="url(#clip0_3906_20254)">
<path fill-rule="evenodd" clip-rule="evenodd" d="M9.1128 0.0664062H10.8796C13.3061 0.0664062 14.7241 0.422804 15.9829 1.09768C17.2416 1.77256 18.235 2.75834 18.9023 4.01712C19.5772 5.27588 19.9336 6.69388 19.9336 9.1204V10.8796C19.9336 13.3062 19.5772 14.7242 18.9023 15.9829C18.2274 17.2417 17.2416 18.2351 15.9829 18.9024C14.7241 19.5772 13.3061 19.9336 10.8796 19.9336H9.12036C6.69384 19.9336 5.27584 19.5772 4.01708 18.9024C2.75833 18.2275 1.76497 17.2417 1.09768 15.9829C0.4228 14.7242 0.0664062 13.3062 0.0664062 10.8796V9.1204C0.0664062 6.69388 0.4228 5.27588 1.09768 4.01712C1.77256 2.75834 2.75833 1.76498 4.01708 1.09768C5.26828 0.422804 6.69384 0.0664062 9.1128 0.0664062Z" fill="white"/>
<path opacity="0.12" fill-rule="evenodd" clip-rule="evenodd" d="M19.9334 10.5898V10.8802C19.9334 13.3067 19.5771 14.7247 18.9022 15.9834C18.2273 17.2422 17.2415 18.2356 15.9828 18.9029C14.724 19.5778 13.306 19.9342 10.8795 19.9342H9.12028C7.13476 19.9342 5.82448 19.6955 4.72416 19.239L2.91016 17.3711L19.9334 10.5898Z" fill="white"/>
<path fill-rule="evenodd" clip-rule="evenodd" d="M3.11258 17.4357C4.04174 17.5384 5.20342 17.2734 6.02826 16.873C9.60998 18.8527 15.2089 18.7582 18.5979 16.5893C18.7293 16.3921 18.8521 16.1871 18.9661 15.9745C19.6435 14.7112 20.0011 13.288 20.0011 10.8526V9.087C20.0011 6.6516 19.6435 5.22844 18.9661 3.96509C18.2964 2.70174 17.2994 1.71237 16.0361 1.03503C14.7727 0.357696 13.3495 0 10.9142 0H9.14094C7.06674 0 5.72026 0.261102 4.58894 0.759572C4.5271 0.814948 4.46642 0.871272 4.40702 0.92854C1.08791 4.12812 0.835608 11.0637 3.65009 14.8313C3.65323 14.8368 3.65671 14.8424 3.66053 14.8481C4.09434 15.4874 3.67575 16.6062 3.02125 17.2606C2.9147 17.3596 2.95275 17.4205 3.11258 17.4357Z" fill="#00A19A"/>
<path d="M8.22468 6.7998H4.33468V7.63392H7.03416L4.37256 10.9325C4.28916 11.0538 4.22852 11.1676 4.22852 11.4254V11.6377H7.8986C8.0806 11.6377 8.23228 11.486 8.23228 11.304V10.8566H5.39628L7.8986 7.71732C7.93652 7.67184 8.00476 7.58844 8.03512 7.55052L8.05028 7.52776C8.19436 7.31544 8.22468 7.13345 8.22468 6.91357V6.7998Z" fill="white"/>
<path d="M13.177 11.6377H13.7306V6.7998H12.8965V11.3571C12.8965 11.5088 13.0178 11.6377 13.177 11.6377Z" fill="white"/>
<path d="M10.3254 7.87695C9.27897 7.87695 8.42969 8.72623 8.42969 9.77267C8.42969 10.8191 9.27897 11.6684 10.3254 11.6684C11.3718 11.6684 12.2211 10.8191 12.2211 9.77267C12.2287 8.72623 11.3794 7.87695 10.3254 7.87695ZM10.3254 10.8874C9.71121 10.8874 9.21073 10.3869 9.21073 9.77267C9.21073 9.15847 9.71121 8.65799 10.3254 8.65799C10.9396 8.65799 11.4401 9.15847 11.4401 9.77267C11.4401 10.3869 10.9472 10.8874 10.3254 10.8874Z" fill="white"/>
<path d="M16.1941 7.84668C15.14 7.84668 14.2832 8.70356 14.2832 9.75756C14.2832 10.8116 15.14 11.6685 16.1941 11.6685C17.2481 11.6685 18.105 10.8116 18.105 9.75756C18.105 8.70356 17.2481 7.84668 16.1941 7.84668ZM16.1941 10.8874C15.5723 10.8874 15.0718 10.387 15.0718 9.76516C15.0718 9.14336 15.5723 8.64288 16.1941 8.64288C16.8159 8.64288 17.3164 9.14336 17.3164 9.76516C17.3164 10.387 16.8159 10.8874 16.1941 10.8874Z" fill="white"/>
<path d="M11.7829 11.6374H12.2303V7.98242H11.4492V11.3113C11.4492 11.4857 11.6009 11.6374 11.7829 11.6374Z" fill="white"/>
</g>
<defs>
<clipPath id="clip0_3906_20254">
<rect width="20" height="20" fill="white"/>
</clipPath>
</defs>
</svg>
