<svg width="10" height="7" viewBox="0 0 10 7" fill="none" xmlns="http://www.w3.org/2000/svg">
<path d="M5.00408 0C6.52041 0 8.03675 0 9.55562 0C9.61901 0 9.68241 0.00228983 9.74326 0.013739C9.8954 0.0457965 9.99176 0.148839 9.9943 0.290808C9.99937 0.462545 10.0044 0.634282 9.99176 0.806019C9.98669 0.856395 9.92837 0.91822 9.87512 0.945698C9.07638 1.3739 8.2751 1.79751 7.47636 2.22342C6.69537 2.63788 5.91185 3.05463 5.13086 3.47138C5.04465 3.51717 4.97872 3.52175 4.88997 3.47367C3.31278 2.65849 1.73305 1.84331 0.153318 1.03042C0.0468196 0.975466 -0.00896539 0.915931 0.00117733 0.79915C0.0138557 0.638862 0.00117733 0.478574 0.00624869 0.318286C0.00624869 0.13052 0.133033 0.013739 0.340959 0.00228983C0.384065 0 0.424636 0.00228983 0.467743 0.00228983C1.97901 0 3.49281 0 5.00408 0ZM9.47194 6.99771C9.53027 6.99771 9.59112 6.96336 9.64944 6.94504C9.62155 6.89696 9.6038 6.842 9.56576 6.80307C8.53628 5.79784 7.50426 4.7949 6.47477 3.78966C6.39616 3.7141 6.33531 3.6912 6.22881 3.75074C5.91185 3.92705 5.58982 4.08963 5.27032 4.26366C5.0979 4.35754 4.93308 4.35754 4.75811 4.26366C4.4868 4.1194 4.20787 3.9843 3.93655 3.83775C3.8402 3.78508 3.77681 3.79424 3.69313 3.86523C2.69914 4.7033 1.70008 5.5368 0.703561 6.37259C0.53367 6.51456 0.361244 6.65653 0.193889 6.80079C0.0975332 6.88322 0.112747 6.94733 0.239531 6.97939C0.307995 6.99771 0.381529 7 0.452528 7C1.94858 7 3.4421 7 4.93815 7C6.44688 7 7.95814 7 9.47194 6.99771ZM9.99683 1.97841C9.99683 1.92574 9.97147 1.87308 9.95626 1.82041C9.89794 1.83415 9.83455 1.83873 9.78383 1.86621C8.94959 2.30586 8.11789 2.75008 7.28619 3.19202C7.09855 3.29277 7.09601 3.30422 7.24308 3.44848C8.09254 4.27511 8.94452 5.10402 9.79651 5.93065C9.83201 5.965 9.89033 5.98332 9.93851 6.0085C9.9588 5.95813 9.9943 5.91004 9.99683 5.85967C10.0019 5.21165 9.99937 4.56362 9.99937 3.91331C9.99937 3.26758 9.99937 2.62185 9.99683 1.97841ZM0.00371301 5.69709C0.00371301 5.7406 0.0316055 5.78639 0.0468196 5.8299C0.0975332 5.81158 0.160925 5.80242 0.19896 5.77036C1.10673 5.01243 2.01451 4.25221 2.91975 3.49199C3.02371 3.40497 3.01864 3.36605 2.89692 3.30422C1.99929 2.83939 1.09913 2.37455 0.196425 1.90972C0.0468196 1.83186 0.00117733 1.85934 0.00117733 2.01276C0.00117733 2.62643 0.00117733 3.2401 0.00117733 3.85378C0.00371301 4.46974 0.00117733 5.08342 0.00371301 5.69709Z" fill="black"/>
</svg>
