<svg width="11" height="15" viewBox="0 0 11 15" fill="none" xmlns="http://www.w3.org/2000/svg">
<path d="M5.49966 15C5.22694 14.6747 4.95652 14.3589 4.69297 14.0383C3.55397 12.6453 2.47457 11.2075 1.53954 9.66121C1.1064 8.94466 0.723678 8.19982 0.398251 7.42435C-0.160932 6.08788 -0.117389 4.75849 0.441794 3.45738C1.26911 1.52929 2.7152 0.371962 4.74338 0.0608277C7.66535 -0.387017 10.4131 1.68721 10.9288 4.6642C11.1007 5.66361 10.954 6.60408 10.569 7.5257C10.145 8.53924 9.60187 9.48443 9.00602 10.399C7.96557 11.9971 6.79907 13.4962 5.56153 14.9364C5.54778 14.9505 5.53174 14.967 5.49966 15ZM8.2612 5.18276C8.26349 3.62238 7.03054 2.35191 5.50882 2.34955C3.99169 2.34484 2.75187 3.61766 2.74957 5.17569C2.74728 6.74315 3.98253 8.01597 5.50882 8.01597C7.02595 8.01597 8.25891 6.74551 8.2612 5.18276Z" fill="#00A19A"/>
</svg>
