<svg width="29" height="29" viewBox="0 0 29 29" fill="none" xmlns="http://www.w3.org/2000/svg">
<path d="M2.82521 18.2404C2.68201 18.5385 2.52579 18.8302 2.39778 19.1327C2.03327 19.9902 1.6731 20.8498 1.48217 21.7682C1.33246 22.4864 1.25001 23.2134 1.3802 23.9403C1.57547 25.0393 2.28061 25.7314 3.37197 25.9425C3.92524 26.0491 4.48067 26.0078 5.03177 25.9295C6.18388 25.764 7.25353 25.3484 8.29715 24.8543C10.213 23.9468 11.9878 22.8129 13.6454 21.4919C13.9644 21.2372 14.2855 20.9891 14.6391 20.7084C13.6281 20.3493 12.6452 20.001 11.6623 19.6528C11.6645 19.6441 11.6667 19.6354 11.6688 19.6267C14.4005 18.8933 17.1343 18.1577 19.8941 17.4155C19.1542 20.1817 18.4209 22.9304 17.6767 25.7162C17.2579 24.5213 16.8522 23.3635 16.44 22.1883C16.3966 22.2188 16.351 22.2449 16.312 22.2797C15.0318 23.3983 13.691 24.4343 12.272 25.3658C11.4454 25.9077 10.5927 26.4104 9.73782 26.9088C8.63128 27.5552 7.45748 28.0623 6.24246 28.4627C5.20535 28.8066 4.14654 29.0656 3.04217 28.9872C2.3175 28.935 1.63405 28.7435 1.06776 28.2582C0.570904 27.8338 0.334408 27.2614 0.191209 26.6411C0.0306522 25.9425 0.087064 25.2482 0.202057 24.5496C0.38865 23.4245 0.772684 22.3646 1.20228 21.3156C1.62754 20.2774 2.17647 19.3068 2.73842 18.3405C2.76011 18.3013 2.78832 18.2665 2.81219 18.2295C2.81653 18.2338 2.82087 18.2382 2.82521 18.2425V18.2404Z" fill="#00A19A"/>
<path d="M20.1077 18.6602C20.2856 18.003 20.4614 17.3479 20.648 16.6602C19.8799 16.8669 19.1335 17.0693 18.3893 17.2695C18.3741 17.2499 18.3568 17.2304 18.3416 17.2108C18.4067 17.1651 18.4848 17.1302 18.5368 17.0737C19.5653 15.9702 20.5525 14.8342 21.4811 13.6437C22.2882 12.6121 23.0476 11.5479 23.705 10.414C24.5056 9.03636 25.2564 7.63261 25.6925 6.08522C25.9029 5.3409 26.044 4.5857 26.0071 3.80874C25.968 3.01655 25.7445 2.30053 25.0958 1.78255C24.6467 1.42563 24.1216 1.27111 23.5618 1.24064C22.4271 1.17752 21.3466 1.43216 20.3008 1.84784C19.6217 2.11771 18.9556 2.41587 18.3242 2.68574C18.372 2.65527 18.4631 2.59869 18.5542 2.54428C19.856 1.76514 21.2121 1.09918 22.6484 0.607318C23.6421 0.269982 24.651 -0.00641573 25.7055 0.000113347C26.4453 0.00446607 27.1613 0.148106 27.7949 0.568143C28.3134 0.912008 28.6215 1.40822 28.8038 1.98931C29.0121 2.65745 29.0446 3.33865 28.9557 4.03291C28.743 5.69565 28.142 7.22345 27.4195 8.71644C26.7578 10.081 25.9463 11.3542 25.1045 12.6099C23.807 14.5491 22.3229 16.338 20.7326 18.0421C20.533 18.2554 20.329 18.4644 20.1272 18.6776L20.1099 18.6624L20.1077 18.6602Z" fill="#00A19A"/>
<path d="M16.9265 10.5295C16.9265 11.2912 16.9417 12.0529 16.92 12.8125C16.9092 13.1955 16.8332 13.5742 16.6466 13.9246C16.3928 14.3991 16.0131 14.7103 15.5097 14.8713C14.7872 15.1042 14.0582 15.0781 13.3335 14.88C12.5004 14.6515 12.0816 14.0465 11.9145 13.2434C11.8538 12.954 11.8364 12.6514 11.8321 12.3533C11.8212 11.2346 11.8169 10.1138 11.8321 8.99516C11.8386 8.55771 11.882 8.11809 11.9493 7.68499C12.0751 6.87321 12.5871 6.38135 13.3422 6.1463C14.2578 5.8612 15.143 5.94172 15.9784 6.43793C16.5013 6.74915 16.7746 7.23231 16.8658 7.81775C16.92 8.17467 16.9374 8.53812 16.946 8.8994C16.9591 9.44349 16.9504 9.98758 16.9504 10.5317C16.9439 10.5317 16.9352 10.5317 16.9287 10.5317L16.9265 10.5295ZM14.7547 10.5099C14.7547 9.67636 14.7547 8.84281 14.7547 8.00927C14.7547 7.88304 14.7438 7.75463 14.7199 7.63058C14.6809 7.42818 14.5572 7.3346 14.3706 7.34548C14.1819 7.35636 14.0712 7.46082 14.0517 7.66758C14.0322 7.87869 14.0148 8.09197 14.0148 8.30525C14.0126 9.746 14.0126 11.1868 14.0148 12.6275C14.0148 12.88 14.0322 13.1346 14.0517 13.3871C14.0669 13.5742 14.1493 13.6547 14.3164 13.6743C14.5138 13.6983 14.6505 13.6286 14.6982 13.4545C14.7351 13.3218 14.7547 13.1781 14.7547 13.0388C14.759 12.1966 14.7568 11.3522 14.7568 10.5099H14.7547Z" fill="#00A19A"/>
<path d="M8.07668 9.64582C8.17215 9.54353 8.25243 9.43907 8.35006 9.35636C8.81221 8.9668 9.61065 8.91456 10.1921 9.22578C10.702 9.49783 10.9819 9.92657 11.0383 10.5011C11.1381 11.4914 11.1446 12.4838 11.0058 13.4697C10.9211 14.0725 10.5349 14.4599 10.0142 14.7276C9.66272 14.9083 9.28303 14.9844 8.89465 15.0214C8.31535 15.0737 7.74906 15.0214 7.20664 14.8016C6.42338 14.4839 5.99379 13.8832 5.95039 13.0562C5.89615 11.9658 5.89832 10.8733 5.88747 9.78075C5.88313 9.26496 5.89832 8.74698 5.91351 8.23119C5.93303 7.6501 6.08925 7.11471 6.50149 6.68162C6.83345 6.3334 7.25871 6.17017 7.71652 6.07006C8.44119 5.91336 9.15068 5.94818 9.84715 6.21588C10.5067 6.46833 10.8734 6.96237 11.0079 7.64139C11.0557 7.87644 11.0708 8.11584 11.1012 8.35524C11.1121 8.44447 11.086 8.48582 10.9841 8.48582C10.3375 8.48147 9.69093 8.48582 9.04653 8.48582C8.94456 8.48582 8.9055 8.4597 8.90984 8.34653C8.91852 8.14413 8.90984 7.93955 8.90116 7.73498C8.89248 7.50863 8.72542 7.34758 8.49977 7.34105C8.27412 7.33452 8.10489 7.48469 8.08753 7.71974C8.07668 7.87426 8.07885 8.02878 8.07885 8.18113C8.07885 8.66428 8.07885 9.14961 8.07885 9.64364L8.07668 9.64582ZM8.89899 12.0093C8.89899 12.0093 8.90767 12.0093 8.91201 12.0093C8.91201 11.7329 8.91635 11.4566 8.91201 11.1802C8.90767 11.0126 8.89899 10.845 8.86862 10.6818C8.83607 10.5055 8.71674 10.4075 8.55618 10.3901C8.37176 10.3684 8.23724 10.4358 8.1613 10.6099C8.11791 10.7122 8.08753 10.8276 8.08536 10.9364C8.07885 11.6611 8.08102 12.3859 8.08753 13.1128C8.08753 13.2281 8.11357 13.35 8.15696 13.4566C8.24809 13.683 8.47807 13.7417 8.68202 13.6133C8.85343 13.5045 8.89248 13.3347 8.89682 13.1541C8.90333 12.7732 8.89899 12.3924 8.89899 12.0115V12.0093Z" fill="#00A19A"/>
<path d="M4.19259 9.91991C4.20994 9.93515 4.21862 9.94603 4.22947 9.95038C4.76538 10.1463 5.00188 10.5576 5.06697 11.0973C5.14074 11.7067 5.16678 12.3183 5.09301 12.9276C5.05395 13.2519 4.98235 13.5827 4.86302 13.8874C4.6569 14.425 4.21862 14.7318 3.68271 14.8864C2.89512 15.1127 2.09884 15.1127 1.32209 14.8407C0.608268 14.5904 0.172162 14.0985 0.0745258 13.3172C0.00292616 12.7057 0.00726553 12.0941 0.000756479 11.4847C0.000756479 11.4129 0.024623 11.389 0.0940529 11.389C0.757976 11.389 1.4219 11.3933 2.08799 11.389C2.1878 11.389 2.19431 11.439 2.19431 11.5152C2.18997 11.9222 2.18563 12.3313 2.18997 12.7383C2.19214 12.9603 2.20733 13.1823 2.22685 13.4021C2.23987 13.5631 2.31364 13.6415 2.45033 13.6676C2.62174 13.7024 2.78012 13.6524 2.83653 13.5174C2.88644 13.3999 2.92115 13.265 2.92332 13.1387C2.93417 12.6077 2.932 12.0789 2.92983 11.5478C2.92983 11.476 2.91681 11.4042 2.90162 11.3324C2.83436 11.0081 2.64343 10.8405 2.31147 10.8144C2.14007 10.8013 1.96866 10.7883 1.79726 10.7861C1.6866 10.7839 1.63887 10.7535 1.64104 10.6294C1.64972 10.2942 1.64755 9.95908 1.64104 9.62393C1.64104 9.51293 1.67792 9.48464 1.78207 9.48464C1.98602 9.48464 2.1878 9.46723 2.39175 9.46287C2.75192 9.45635 2.89729 9.27353 2.91898 8.9362C2.94502 8.54445 2.932 8.14835 2.92332 7.75443C2.91898 7.60426 2.87342 7.45627 2.72154 7.37792C2.49589 7.26475 2.24421 7.39316 2.22468 7.65432C2.19865 7.99165 2.19865 8.33334 2.19214 8.67286C2.1878 8.86002 2.19214 8.85785 2.00554 8.85785C1.38285 8.85785 0.757976 8.85785 0.135277 8.86002C0.0289624 8.86002 -0.00575257 8.83608 0.000756479 8.72291C0.024623 8.32029 0.0333017 7.91766 0.0549986 7.51721C0.0615076 7.41492 0.0940529 7.31263 0.11575 7.21252C0.245931 6.65102 0.601759 6.30062 1.14418 6.14828C2.01856 5.90235 2.89295 5.92411 3.76516 6.16351C4.30324 6.3115 4.65256 6.6619 4.84783 7.17987C5.0648 7.75878 5.09951 8.35511 4.98018 8.95796C4.89773 9.378 4.62435 9.65875 4.26419 9.8655C4.24466 9.87638 4.22513 9.88509 4.20561 9.89597C4.20127 9.89597 4.1991 9.9025 4.19042 9.91556L4.19259 9.91991Z" fill="#00A19A"/>
<path d="M18.0282 6.87332C17.5639 6.87332 17.1604 6.46634 17.1582 5.99407C17.1582 5.53051 17.5531 5.12135 18.0131 5.11482C18.4904 5.10829 18.9048 5.52615 18.8983 6.00931C18.8918 6.47722 18.4947 6.87332 18.0282 6.87332ZM17.6985 6.00278C17.6985 6.18994 17.8373 6.32053 18.0304 6.31835C18.2062 6.31835 18.3407 6.17689 18.3429 5.99625C18.3429 5.80908 18.2062 5.67197 18.0196 5.67632C17.8265 5.68068 17.6985 5.81126 17.7006 6.00278H17.6985Z" fill="#00A19A"/>
<path d="M14.7551 10.51C14.7551 11.3523 14.7572 12.1967 14.7529 13.0389C14.7529 13.1782 14.7334 13.3197 14.6965 13.4546C14.6487 13.6287 14.512 13.6984 14.3146 13.6744C14.1475 13.6548 14.0651 13.5743 14.0499 13.3872C14.0304 13.1347 14.0152 12.8801 14.013 12.6276C14.0087 11.1869 14.0087 9.7461 14.013 8.30535C14.013 8.09207 14.0304 7.88096 14.0499 7.66768C14.0694 7.46092 14.1823 7.35646 14.3688 7.34558C14.5576 7.33469 14.6791 7.42828 14.7182 7.63068C14.742 7.75473 14.7529 7.88314 14.7529 8.00937C14.7551 8.84291 14.7529 9.67646 14.7529 10.51H14.7551Z" fill="white"/>
<path d="M8.89959 12.0091C8.89959 12.39 8.90393 12.7709 8.89742 13.1517C8.89308 13.3302 8.85403 13.5021 8.68262 13.6109C8.4765 13.7415 8.24869 13.6806 8.15756 13.4542C8.11417 13.3476 8.0903 13.2257 8.08813 13.1104C8.08162 12.3856 8.07945 11.6609 8.08596 10.934C8.08596 10.8252 8.11851 10.7077 8.1619 10.6076C8.23784 10.4334 8.37236 10.366 8.55678 10.3877C8.71734 10.4052 8.83667 10.5031 8.86922 10.6794C8.89959 10.8426 8.90827 11.0124 8.91261 11.1778C8.91912 11.4542 8.91261 11.7306 8.91261 12.007C8.90827 12.007 8.90393 12.007 8.89959 12.007V12.0091Z" fill="white"/>
<path d="M17.7014 6.00275C17.7014 5.81123 17.8272 5.67847 18.0203 5.6763C18.2091 5.67412 18.3458 5.80905 18.3436 5.99622C18.3436 6.17686 18.2069 6.31832 18.0312 6.31832C17.8381 6.31832 17.7014 6.18992 17.6992 6.00275H17.7014Z" fill="white"/>
</svg>
