<svg width="24" height="24" viewBox="0 0 24 24" fill="none" xmlns="http://www.w3.org/2000/svg">
<path d="M23.3986 6.29979C23.2633 5.79774 22.9988 5.33989 22.6316 4.97181C22.2643 4.60372 21.8071 4.33824 21.3053 4.20178C19.4449 3.69094 12.0021 3.68263 12.0021 3.68263C12.0021 3.68263 4.56047 3.67431 2.69887 4.16258C2.19745 4.30531 1.74113 4.57455 1.37374 4.94444C1.00634 5.31433 0.740202 5.77246 0.600867 6.27484C0.110223 8.13525 0.10547 11.9939 0.10547 11.9939C0.10547 11.9939 0.100719 15.8715 0.587799 17.7129C0.861039 18.731 1.66294 19.5353 2.68224 19.8097C4.56166 20.3206 11.9843 20.3289 11.9843 20.3289C11.9843 20.3289 19.4271 20.3372 21.2875 19.8501C21.7894 19.7139 22.2471 19.449 22.6153 19.0817C22.9834 18.7144 23.2494 18.2573 23.3867 17.7557C23.8785 15.8965 23.8821 12.039 23.8821 12.039C23.8821 12.039 23.9059 8.1602 23.3986 6.29979ZM9.62135 15.5686L9.62729 8.44057L15.8132 12.0105L9.62135 15.5686Z" fill="white"/>
</svg>
