<svg width="16" height="16" viewBox="0 0 16 16" fill="none" xmlns="http://www.w3.org/2000/svg">
<path d="M14.0226 3.79456C13.2331 3.62095 12.5189 3.20169 11.9825 2.59697C11.4461 1.99224 11.115 1.23313 11.0368 0.428558V0.0800781H8.30439V10.9067C8.30494 11.3871 8.15433 11.8555 7.87389 12.2456C7.59345 12.6356 7.19739 12.9275 6.74182 13.0799C6.28625 13.2324 5.79427 13.2376 5.33556 13.0949C4.87685 12.9522 4.47467 12.6688 4.18599 12.2848C3.92736 11.9449 3.76899 11.5394 3.72879 11.1142C3.68859 10.689 3.76816 10.261 3.95851 9.8787C4.14886 9.49636 4.44238 9.1749 4.8059 8.95068C5.16941 8.72646 5.58841 8.60843 6.01551 8.60992C6.25172 8.60857 6.48674 8.64329 6.71247 8.71288V5.94088C6.44979 5.90835 6.18508 5.89511 5.92047 5.90128C4.94576 5.92732 3.99981 6.23703 3.19843 6.79249C2.39706 7.34795 1.77505 8.12504 1.40858 9.0286C1.04212 9.93217 0.947088 10.923 1.13514 11.8797C1.32319 12.8365 1.78616 13.7176 2.46735 14.4153C3.16549 15.1251 4.05887 15.6113 5.03398 15.8122C6.00909 16.0131 7.02191 15.9196 7.94376 15.5436C8.8656 15.1675 9.65485 14.5259 10.2112 13.7003C10.7676 12.8747 11.066 11.9023 11.0685 10.9067V5.36272C12.1705 6.14993 13.492 6.57103 14.8463 6.56656V3.87376C14.5803 3.87486 14.3149 3.84831 14.0543 3.79456H14.0226Z" fill="white"/>
</svg>
