<svg width="9" height="12" viewBox="0 0 9 12" fill="none" xmlns="http://www.w3.org/2000/svg">
<path d="M4.49972 12C4.27659 11.7398 4.05533 11.4871 3.8397 11.2306C2.9078 10.1162 2.02464 8.96597 1.25962 7.72897C0.905235 7.15573 0.5921 6.55986 0.325842 5.93948C-0.131672 4.8703 -0.0960458 3.80679 0.361468 2.7659C1.03836 1.22343 2.22153 0.29757 3.88095 0.0486621C6.27165 -0.309614 8.51984 1.34977 8.94173 3.73136C9.08236 4.53088 8.96236 5.28326 8.64735 6.02056C8.30046 6.83139 7.85607 7.58755 7.36856 8.31918C6.51728 9.59766 5.56288 10.7969 4.55035 11.9491C4.5391 11.9604 4.52597 11.9736 4.49972 12ZM6.75916 4.14621C6.76104 2.8979 5.75226 1.88153 4.50722 1.87964C3.26593 1.87587 2.25153 2.89413 2.24965 4.14055C2.24778 5.39452 3.25843 6.41278 4.50722 6.41278C5.74851 6.41278 6.75729 5.3964 6.75916 4.14621Z" fill="black"/>
</svg>
