<svg width="40" height="31" viewBox="0 0 40 31" fill="none" xmlns="http://www.w3.org/2000/svg">
<path d="M35.6044 25.3013C35.6044 25.3779 35.6044 25.434 35.6044 25.4902C35.6044 26.7255 35.6044 27.9608 35.6032 29.1962C35.6032 29.4348 35.5904 29.6734 35.5765 29.9108C35.5357 30.5974 34.7545 31.0185 34.1603 30.6752C34.0789 30.628 34 30.5719 33.93 30.5081C32.0215 28.8082 30.1143 27.1071 28.207 25.4034C28.1192 25.3243 28.0301 25.2924 27.9093 25.2924C26.2972 25.2987 24.6851 25.3013 23.0731 25.3013C20.8795 25.3026 18.686 25.3026 16.4912 25.3039C15.0356 25.3039 13.8142 24.2178 13.6666 22.7758C13.6322 22.4452 13.6475 22.1083 13.6475 21.774C13.6462 20.6867 13.6475 19.6007 13.6475 18.5134C13.6475 18.5032 13.6424 18.4929 13.6335 18.4623C13.5851 18.4598 13.5304 18.4559 13.4745 18.4547C13.0304 18.4547 12.5864 18.4598 12.1423 18.4508C11.9833 18.4483 11.8624 18.4917 11.7441 18.5976C10.8063 19.4386 9.86353 20.2732 8.92199 21.1104C8.01353 21.9195 7.10507 22.7311 6.19661 23.5402C6.10246 23.6244 6.00449 23.7074 5.90016 23.7776C5.3136 24.1681 4.5082 23.7929 4.42423 23.0897C4.40769 22.948 4.39751 22.8051 4.39751 22.6622C4.39624 21.3311 4.39751 20.0001 4.39751 18.6691C4.39751 18.6052 4.39751 18.5414 4.39751 18.4521C4.33262 18.4521 4.27155 18.4521 4.21047 18.4521C3.77151 18.4534 3.3351 18.4585 2.90123 18.3602C1.70267 18.0973 0.752227 16.9245 0.750954 15.6969C0.749682 11.4128 0.749682 7.1274 0.750954 2.84331C0.752227 1.41273 1.81846 0.210577 3.23076 0.0357418C3.372 0.0178755 3.5145 0.0089423 3.657 0.0089423C10.2694 0.00638996 16.8831 0.0153231 23.4968 9.12802e-06C24.9396 -0.00381937 26.3799 1.19705 26.3583 2.88415C26.3417 4.13989 26.3608 5.39692 26.357 6.65394C26.357 6.81474 26.4041 6.86068 26.5644 6.86068C29.8318 6.85558 33.0979 6.85303 36.3653 6.85558C37.7127 6.85558 38.8426 7.72337 39.1632 9.00464C39.223 9.24329 39.2472 9.49724 39.2472 9.74354C39.251 13.9 39.2446 18.0578 39.2497 22.2143C39.2497 22.8651 39.1683 23.4853 38.7802 24.0264C38.1962 24.8419 37.4252 25.3166 36.3971 25.3026C36.1401 25.2987 35.8818 25.3026 35.6057 25.3026L35.6044 25.3013ZM33.6018 27.6329C33.6183 27.6329 33.6336 27.6329 33.6501 27.6329C33.6501 27.5295 33.6501 27.4261 33.6501 27.324C33.6488 26.3541 33.645 25.3842 33.645 24.4131C33.645 24.1476 33.7061 23.8988 33.8906 23.6933C34.1018 23.4572 34.3677 23.3539 34.6794 23.3539C35.2927 23.3539 35.906 23.3551 36.5193 23.3449C36.63 23.3437 36.747 23.3028 36.8475 23.2518C37.2063 23.0706 37.2954 22.7439 37.2954 22.3738C37.2954 18.202 37.2954 14.0289 37.2941 9.85712C37.2941 9.778 37.2941 9.6976 37.2903 9.61848C37.261 9.18075 36.948 8.84895 36.5193 8.81832C36.2826 8.80173 36.0447 8.80046 35.8067 8.80046C29.6804 8.80046 23.554 8.79918 17.4276 8.7979C17.1312 8.7979 16.836 8.79663 16.5395 8.79408C15.9415 8.78897 15.5446 9.22032 15.5878 9.76013C15.5993 9.90817 15.5955 10.0575 15.5955 10.2055C15.5955 14.071 15.5955 17.9353 15.5955 21.8008C15.5955 22.0177 15.5891 22.2359 15.598 22.4529C15.6222 23.045 15.9466 23.3577 16.5345 23.3577C20.4304 23.3577 24.3263 23.3615 28.221 23.3488C28.6409 23.3475 28.9577 23.4828 29.2605 23.7546C30.7033 25.0537 32.1551 26.3426 33.603 27.6354L33.6018 27.6329ZM6.33912 20.8079C6.40401 20.7607 6.44218 20.7377 6.47526 20.7084C6.75645 20.4595 7.03764 20.2094 7.31755 19.9593C8.49448 18.9103 9.6714 17.8612 10.8471 16.8097C11.0913 16.5915 11.3636 16.483 11.697 16.4906C12.2937 16.5047 12.8917 16.4932 13.4885 16.497C13.5915 16.497 13.6475 16.483 13.6373 16.3592C13.6284 16.2443 13.6475 16.1269 13.6475 16.0095C13.6449 13.9255 13.6437 11.8428 13.6386 9.75886C13.6373 9.10036 13.818 8.50311 14.2239 7.98371C14.813 7.23205 15.5891 6.85303 16.5446 6.85303C18.6478 6.85303 20.7523 6.85303 22.8555 6.85303C23.3212 6.85303 23.7856 6.85303 24.2513 6.86196C24.3645 6.86451 24.4065 6.82623 24.4027 6.71903C24.4014 6.67692 24.4052 6.6348 24.4052 6.59141C24.4052 5.32928 24.4078 4.06843 24.4078 2.8063C24.4078 2.32901 24.0426 1.96403 23.5655 1.95765C23.4968 1.95765 23.428 1.9602 23.3593 1.9602C16.752 1.9602 10.1447 1.9602 3.53867 1.95765C3.34528 1.95765 3.1786 2.00997 3.02846 2.13504C2.79944 2.32519 2.70401 2.56383 2.70401 2.8599C2.70783 7.15931 2.70656 11.4587 2.7091 15.7581C2.7091 15.8296 2.72564 15.9074 2.75618 15.9712C2.92413 16.3235 3.18878 16.5098 3.59593 16.4983C4.16594 16.483 4.73723 16.483 5.30851 16.497C5.47646 16.5009 5.65714 16.543 5.80855 16.6157C6.17371 16.7931 6.35184 17.1096 6.35311 17.5154C6.3582 18.4853 6.35566 19.4552 6.35438 20.4263C6.35438 20.5399 6.34548 20.6548 6.33784 20.8079H6.33912Z" fill="white"/>
</svg>
