<svg width="40" height="42" viewBox="0 0 40 42" fill="none" xmlns="http://www.w3.org/2000/svg">
<path d="M22.1263 11.7167C24.6576 11.7167 26.7096 9.66469 26.7096 7.13338C26.7096 4.60208 24.6576 2.55005 22.1263 2.55005C19.595 2.55005 17.543 4.60208 17.543 7.13338C17.543 9.66469 19.595 11.7167 22.1263 11.7167Z" stroke="white" stroke-width="3.5" stroke-miterlimit="10" stroke-linecap="round" stroke-linejoin="round"/>
<path d="M9.29297 33.7166H34.9596" stroke="white" stroke-width="3.5" stroke-miterlimit="10" stroke-linecap="round" stroke-linejoin="round"/>
<path d="M1.95898 40.1334H42.2923" stroke="white" stroke-width="3.5" stroke-miterlimit="10" stroke-linecap="round" stroke-linejoin="round"/>
<path d="M38.625 18.1334L34.6348 21.3261C34.468 21.4596 34.2598 21.5306 34.0463 21.5269C33.8327 21.5232 33.6272 21.4451 33.4651 21.306L27.625 16.3H16.625L10.7849 21.306C10.6228 21.4451 10.4173 21.5232 10.2037 21.5269C9.99016 21.5306 9.78203 21.4596 9.61525 21.3261L5.625 18.1334" stroke="white" stroke-width="3.5" stroke-miterlimit="10" stroke-linecap="round" stroke-linejoin="round"/>
<path d="M16.625 16.4309V29.1332" stroke="white" stroke-width="3.5" stroke-miterlimit="10" stroke-linecap="round" stroke-linejoin="round"/>
<path d="M27.625 16.4309V29.1332" stroke="white" stroke-width="3.5" stroke-miterlimit="10" stroke-linecap="round" stroke-linejoin="round"/>
</svg>
