<svg width="20" height="20" viewBox="0 0 20 20" fill="none" xmlns="http://www.w3.org/2000/svg">
<path d="M0.0507812 11.0001H5.52778C5.6989 14.167 6.70833 17.2315 8.45278 19.8801C6.26771 19.5369 4.25798 18.4793 2.7378 16.8726C1.21762 15.2659 0.272699 13.2008 0.0507812 11.0001ZM0.0507812 9.00012C0.272699 6.79942 1.21762 4.73429 2.7378 3.12763C4.25798 1.52097 6.26771 0.46334 8.45278 0.120117C6.70833 2.76873 5.6989 5.83326 5.52778 9.00012H0.0507812ZM19.9508 9.00012H14.4738C14.3027 5.83326 13.2932 2.76873 11.5488 0.120117C13.7338 0.46334 15.7436 1.52097 17.2638 3.12763C18.7839 4.73429 19.7289 6.79942 19.9508 9.00012ZM19.9508 11.0001C19.7289 13.2008 18.7839 15.2659 17.2638 16.8726C15.7436 18.4793 13.7338 19.5369 11.5488 19.8801C13.2932 17.2315 14.3027 14.167 14.4738 11.0001H19.9518H19.9508ZM7.53078 11.0001H12.4708C12.3062 13.6996 11.4561 16.3126 10.0008 18.5921C8.54548 16.3126 7.69538 13.6996 7.53078 11.0001ZM7.53078 9.00012C7.69538 6.30063 8.54548 3.68768 10.0008 1.40812C11.4561 3.68768 12.3062 6.30063 12.4708 9.00012H7.53078Z" fill="white"/>
</svg>
