<svg width="40" height="34" viewBox="0 0 40 34" fill="none" xmlns="http://www.w3.org/2000/svg">
<path d="M19.8189 32.1918C20.2344 32.1918 20.6475 32.0818 21.0264 31.8642C22.5982 30.9573 25.2602 29.7938 28.7044 29.7986C30.902 29.8011 32.7793 30.2802 34.2533 30.862C35.8373 31.4853 37.5386 30.2753 37.5386 28.5715V6.36864C37.5386 5.50331 37.0962 4.70642 36.3506 4.26642C34.7935 3.34731 32.1315 2.15686 28.6751 2.15686C24.0551 2.15686 20.8577 4.28842 19.8164 5.04619" stroke="white" stroke-width="3.5" stroke-linecap="round" stroke-linejoin="round"/>
<path d="M19.8194 32.1915C19.4038 32.1915 18.9907 32.0815 18.6118 31.8639C17.0401 30.9571 14.3781 29.7935 10.9338 29.7984C8.73628 29.8008 6.85894 30.2799 5.38494 30.8617C3.80094 31.4851 2.09961 30.2824 2.09961 28.5811C2.09961 22.2426 2.09961 10.3162 2.09961 6.36106C2.09961 5.49572 2.54205 4.70861 3.28761 4.26861C4.84472 3.3495 7.50672 2.15906 10.9632 2.15906C15.5832 2.15906 18.7805 4.29061 19.8218 5.04839V32.1915H19.8194Z" stroke="white" stroke-width="3.5" stroke-linecap="round" stroke-linejoin="round"/>
</svg>
