<svg width="36" height="39" viewBox="0 0 36 39" fill="none" xmlns="http://www.w3.org/2000/svg">
<path d="M1.80664 19.0898H5.54664C6.70824 19.0898 7.85884 19.3208 8.93024 19.7674L17.486 23.3336C19.1756 24.0376 20.0116 25.945 19.3868 27.6654C18.7752 29.3462 16.9756 30.2724 15.253 29.795L8.40444 27.892" stroke="white" stroke-width="3.5" stroke-linecap="round" stroke-linejoin="round"/>
<path d="M19.3893 27.6633L29.0517 23.8353C30.9767 23.0521 33.1635 24.0575 33.8191 26.0287C34.3845 27.7271 33.6167 29.5839 32.0151 30.3825L20.2671 36.2565C18.2981 37.2421 16.0321 37.4511 13.9135 36.8461L1.80469 33.3855" stroke="white" stroke-width="3.5" stroke-linecap="round" stroke-linejoin="round"/>
<path d="M32.566 6.15817C32.2558 3.66557 30.2362 2.01557 27.7238 2.05957C26.1618 2.08817 24.855 2.88237 23.8078 4.19137C23.007 2.85817 21.4076 2.05737 19.8082 2.05737C17.1418 2.05737 15.0078 4.19137 15.0078 6.85777C15.2278 11.722 19.85 15.8294 22.4856 17.6994C23.2666 18.2538 24.305 18.2274 25.064 17.6466C27.6226 15.6842 33.1512 10.8574 32.566 6.15817Z" stroke="white" stroke-width="3.5"/>
</svg>
