<svg width="32" height="33" viewBox="0 0 32 33" fill="none" xmlns="http://www.w3.org/2000/svg">
<path d="M16.3674 26.9766C16.1396 26.8489 15.8617 26.8489 15.6339 26.9766L6.60493 32.0379C6.04657 32.3509 5.37798 31.8656 5.50253 31.2378L7.52396 21.0481C7.57218 20.805 7.49722 20.5538 7.32368 20.3769L0.391833 13.3109C-0.0423326 12.8684 0.217438 12.1201 0.832439 12.0417L10.3963 10.8234C10.6529 10.7907 10.8745 10.6281 10.9827 10.3932L15.3195 0.978782C15.5874 0.397174 16.4139 0.397175 16.6819 0.978783L21.0186 10.3932C21.1268 10.6281 21.3484 10.7907 21.605 10.8234L31.1689 12.0417C31.7839 12.1201 32.0436 12.8684 31.6095 13.3109L24.6776 20.3769C24.5041 20.5538 24.4291 20.805 24.4773 21.0481L26.4988 31.2378C26.6233 31.8656 25.9547 32.3509 25.3964 32.0379L16.3674 26.9766Z" fill="#FFCC00"/>
</svg>
