<?xml version="1.0" standalone="no"?>
<!DOCTYPE svg PUBLIC "-//W3C//DTD SVG 20010904//EN"
 "http://www.w3.org/TR/2001/REC-SVG-20010904/DTD/svg10.dtd">
<svg version="1.0" xmlns="http://www.w3.org/2000/svg"
 width="512.000000pt" height="512.000000pt" viewBox="0 0 512.000000 512.000000"
 preserveAspectRatio="xMidYMid meet">

<g transform="translate(0.000000,512.000000) scale(0.100000,-0.100000)"
fill="#000000" stroke="none">
<path d="M213 5110 c-88 -18 -141 -60 -189 -150 -18 -34 -19 -110 -19 -2400 0
-2290 1 -2366 19 -2400 35 -65 67 -100 119 -128 l52 -27 1760 0 c1681 0 1762
1 1805 18 54 22 104 68 133 122 22 39 22 50 25 505 2 322 -1 472 -8 491 -21
51 -86 64 -125 24 l-25 -24 0 -451 c0 -462 -1 -478 -39 -507 -12 -10 -404 -12
-1757 -13 l-1741 0 -27 21 -26 20 0 2345 0 2345 25 24 24 25 1741 0 1742 0 29
-29 29 -29 0 -832 0 -831 25 -24 c43 -44 119 -21 130 38 3 17 5 406 3 862 -3
829 -3 830 -25 870 -28 52 -78 99 -128 122 -38 17 -127 18 -1775 20 -954 0
-1754 -3 -1777 -7z"/>
<path d="M807 4588 c-30 -24 -37 -68 -37 -237 0 -182 8 -222 46 -240 18 -8
332 -11 1155 -11 l1130 0 24 25 c34 33 33 78 -1 110 l-27 25 -1084 0 -1084 0
3 88 3 87 1080 5 c594 3 1088 9 1098 14 43 21 49 85 12 121 l-24 25 -1139 0
c-895 0 -1142 -3 -1155 -12z"/>
<path d="M4779 4076 c-58 -21 -107 -64 -141 -127 -31 -57 -34 -59 -65 -53 -22
4 -41 1 -57 -9 -13 -9 -72 -99 -130 -201 -59 -102 -112 -188 -117 -191 -5 -3
-28 5 -52 19 -24 15 -58 26 -75 26 -54 0 -93 -77 -59 -121 7 -9 31 -28 55 -42
23 -15 42 -31 42 -35 0 -5 -140 -251 -311 -548 -171 -296 -333 -577 -360 -624
-26 -47 -89 -192 -138 -323 -50 -131 -117 -288 -148 -350 -53 -102 -58 -117
-58 -177 0 -50 5 -74 23 -103 12 -21 19 -44 15 -50 -17 -29 -186 -232 -191
-230 -3 1 -20 39 -39 84 -18 45 -41 91 -50 102 -49 53 -145 66 -209 27 -19
-12 -46 -42 -60 -66 -15 -25 -28 -43 -31 -41 -2 3 -11 85 -19 183 -12 145 -19
187 -37 224 -46 90 -159 114 -240 52 -45 -34 -53 -53 -177 -425 -91 -275 -101
-311 -90 -336 21 -51 92 -67 127 -28 12 13 63 152 123 332 98 297 120 353 120
310 0 -11 7 -96 15 -188 17 -187 31 -231 88 -266 92 -57 183 -27 251 83 l19
29 34 -84 c19 -46 37 -90 40 -97 3 -7 25 -24 50 -39 52 -30 118 -33 164 -6 17
10 79 79 139 154 l107 135 69 0 c55 0 79 5 119 26 61 32 70 41 137 150 29 48
126 176 216 285 178 218 122 128 666 1073 126 217 229 397 231 398 7 7 96 -51
110 -71 8 -12 15 -33 15 -47 0 -15 -69 -146 -166 -316 -224 -390 -209 -358
-194 -395 22 -53 90 -67 127 -27 36 41 371 632 383 677 26 100 -19 203 -120
269 -36 23 -66 47 -68 52 -2 5 46 95 107 199 61 105 111 198 111 206 0 20 -19
57 -33 67 -7 4 4 34 27 80 32 62 38 84 37 136 0 69 -29 138 -78 184 -64 61
-171 84 -254 54z m140 -172 c40 -33 41 -80 6 -141 -14 -23 -28 -43 -31 -43 -5
0 -114 60 -142 78 -10 7 -7 19 14 55 45 81 97 99 153 51z m-164 -292 c72 -40
131 -75 133 -77 1 -1 -21 -42 -50 -91 -28 -49 -68 -117 -88 -151 l-36 -62
-150 86 c-82 47 -150 87 -152 88 -1 1 37 70 85 153 81 138 89 149 108 139 11
-5 79 -44 150 -85z m-269 -434 c103 -59 143 -86 139 -97 -5 -13 -107 -191
-537 -936 -79 -136 -144 -239 -151 -237 -26 7 -279 158 -284 168 -2 7 107 205
243 440 136 236 288 500 338 587 50 86 94 157 98 157 5 0 74 -37 154 -82z
m-704 -1366 c38 -20 68 -40 68 -43 0 -9 -210 -263 -220 -267 -12 -4 -181 90
-178 98 2 4 30 79 63 168 l59 161 71 -40 c38 -21 100 -56 137 -77z m-313 -413
c39 -22 71 -42 71 -44 0 -1 -12 -23 -26 -49 -44 -79 -105 -96 -156 -46 -26 27
-30 36 -25 70 5 40 42 110 57 110 5 0 40 -18 79 -41z"/>
<path d="M1073 3910 c-47 -19 -57 -87 -18 -125 l24 -25 880 0 880 0 27 23 c20
17 27 33 27 57 0 24 -7 40 -27 57 l-27 23 -872 -1 c-480 0 -882 -4 -894 -9z"/>
<path d="M1438 3318 c-77 -15 -91 -115 -21 -147 17 -8 300 -11 979 -11 l956 0
29 29 c16 16 29 37 29 46 0 29 -30 75 -53 80 -33 8 -1880 11 -1919 3z"/>
<path d="M643 2798 c-12 -6 -27 -23 -34 -39 -15 -37 2 -82 37 -98 18 -8 268
-11 889 -11 621 0 871 3 889 11 53 25 57 110 5 136 -32 17 -1752 17 -1786 1z"/>
<path d="M2679 2791 c-18 -14 -24 -29 -24 -60 0 -77 -7 -76 357 -79 222 -2
330 1 349 8 58 24 60 113 3 139 -17 7 -128 11 -343 11 -298 0 -320 -1 -342
-19z"/>
<path d="M661 2378 c-58 -16 -77 -78 -38 -124 l25 -29 460 0 c430 0 461 1 480
18 43 39 27 123 -25 133 -44 8 -870 10 -902 2z"/>
<path d="M1864 2382 c-31 -6 -64 -43 -64 -73 0 -86 12 -89 375 -89 364 0 375
3 375 91 0 32 -30 69 -57 69 -437 4 -613 4 -629 2z"/>
<path d="M965 1780 c-83 -12 -136 -30 -225 -73 -69 -34 -103 -59 -176 -132
-78 -78 -98 -104 -137 -185 -57 -118 -77 -203 -77 -329 0 -269 146 -507 391
-636 97 -51 201 -75 324 -75 202 0 361 66 506 210 127 126 188 247 210 420 12
97 0 136 -48 156 -66 28 -111 -21 -112 -122 -2 -109 -74 -256 -172 -348 -227
-215 -573 -208 -784 15 -104 110 -155 235 -155 381 0 216 125 418 315 507 82
39 143 52 241 52 118 0 209 -27 311 -91 26 -17 60 -30 75 -30 37 0 78 40 78
76 0 76 -197 181 -383 204 -90 11 -108 11 -182 0z"/>
<path d="M1205 1150 l-161 -160 -79 81 c-44 44 -92 89 -107 100 -61 44 -132
14 -132 -56 0 -32 11 -47 109 -146 61 -61 124 -117 142 -125 42 -18 97 -18
137 1 18 9 107 91 199 183 147 148 167 172 167 201 0 43 -38 81 -81 81 -29 0
-52 -20 -194 -160z"/>
</g>
</svg>
