<svg width="37" height="44" viewBox="0 0 37 44" fill="none" xmlns="http://www.w3.org/2000/svg">
<path d="M21.3379 20.4988L19.2754 16.9265" stroke="white" stroke-width="3.5" stroke-miterlimit="10" stroke-linecap="round" stroke-linejoin="round"/>
<path d="M8.14062 5.88949L15.2851 1.76587L22.8476 14.8641L19.2754 16.9266L15.7018 18.9891L8.14062 5.88949Z" stroke="white" stroke-width="3.5" stroke-miterlimit="10" stroke-linecap="round" stroke-linejoin="round"/>
<path d="M5.52567 32.4861L3.7478 29.8145C2.85666 28.4126 2.25689 26.8456 1.98423 25.207C1.71158 23.5683 1.77163 21.8916 2.1608 20.2766C2.54997 18.6617 3.26029 17.1417 4.24943 15.8071C5.23857 14.4725 6.48627 13.3508 7.91817 12.5087L18.1234 6.6842" stroke="white" stroke-width="3.5" stroke-miterlimit="10" stroke-linecap="round" stroke-linejoin="round"/>
<path d="M19.6836 30.9782L31.4137 24.2063" stroke="white" stroke-width="3.5" stroke-miterlimit="10" stroke-linecap="round" stroke-linejoin="round"/>
<path d="M34.8242 42.425H1.82422V38.9875C1.82422 36.9818 2.62098 35.0583 4.03922 33.6401C5.45747 32.2218 7.38102 31.425 9.38672 31.425C11.3924 31.425 13.316 32.2218 14.7342 33.6401C16.1525 35.0583 16.9492 36.9818 16.9492 38.9875L16.8736 42.425" stroke="white" stroke-width="3.5" stroke-miterlimit="10" stroke-linecap="round" stroke-linejoin="round"/>
</svg>
