<?xml version="1.0" standalone="no"?>
<!DOCTYPE svg PUBLIC "-//W3C//DTD SVG 20010904//EN"
 "http://www.w3.org/TR/2001/REC-SVG-20010904/DTD/svg10.dtd">
<svg version="1.0" xmlns="http://www.w3.org/2000/svg"
 width="512.000000pt" height="512.000000pt" viewBox="0 0 512.000000 512.000000"
 preserveAspectRatio="xMidYMid meet">

<g transform="translate(0.000000,512.000000) scale(0.100000,-0.100000)"
fill="#000000" stroke="none">
<path d="M309 5111 c-40 -8 -76 -32 -105 -70 -17 -24 -19 -46 -22 -270 -3
-221 -1 -250 17 -310 39 -130 154 -264 267 -313 l54 -23 0 -55 c0 -112 53
-251 132 -346 l40 -49 -108 -11 c-132 -13 -178 -25 -269 -71 -131 -67 -242
-206 -292 -368 -17 -56 -18 -108 -18 -735 l0 -675 22 -55 c57 -139 182 -220
340 -220 l63 0 0 -515 0 -514 -37 -6 c-62 -10 -112 -36 -149 -78 -57 -62 -64
-90 -64 -241 0 -117 2 -137 19 -157 l19 -24 892 0 892 0 19 24 c17 20 19 40
19 156 0 126 -1 135 -28 186 -34 66 -94 114 -162 128 -31 7 -173 11 -355 11
l-305 0 0 529 c0 504 -1 530 -19 552 -27 33 -95 33 -122 0 -18 -22 -19 -48
-19 -552 l0 -529 -220 0 -220 0 0 730 0 730 520 0 520 0 0 -620 c0 -607 0
-620 20 -640 26 -26 80 -26 111 -1 l24 19 3 405 3 405 82 4 c140 7 250 77 308
193 l24 50 3 679 c2 656 2 682 -18 760 -28 111 -96 222 -178 293 -110 93 -222
136 -384 148 -54 4 -98 10 -98 12 0 3 16 24 36 46 73 86 134 246 134 355 l0
47 57 25 c35 15 83 49 124 87 289 273 175 748 -207 860 -53 15 -126 17 -694
19 -349 1 -651 -1 -671 -5z m1389 -200 c70 -38 120 -92 154 -167 18 -39 23
-67 23 -139 0 -83 -2 -95 -34 -153 -32 -59 -109 -142 -131 -142 -6 0 -10 59
-10 164 0 219 6 211 -165 211 -121 0 -128 -1 -146 -24 -25 -30 -24 -72 2 -105
18 -23 27 -26 85 -26 l64 0 0 -248 c0 -262 -6 -305 -52 -396 -35 -69 -112
-140 -191 -177 -69 -33 -76 -34 -192 -34 -109 0 -125 2 -177 27 -63 29 -148
103 -184 160 -13 20 -32 64 -44 97 -18 54 -20 85 -20 316 l0 255 234 0 235 0
21 27 c16 21 20 36 16 62 -11 67 -5 66 -330 66 -275 0 -295 -1 -315 -19 -20
-18 -21 -29 -21 -188 0 -132 -3 -168 -13 -168 -27 0 -94 70 -128 132 l-34 63
-3 223 -3 223 648 -3 648 -3 63 -34z m-833 -1488 c0 -77 11 -110 57 -175 10
-14 5 -74 -25 -300 -21 -156 -37 -293 -37 -306 0 -30 195 -320 224 -333 47
-22 83 10 181 157 50 75 93 146 98 158 4 12 -10 147 -32 315 l-39 294 29 39
c37 52 54 129 41 186 l-10 43 186 -3 c166 -3 193 -6 242 -26 119 -48 213 -149
250 -270 19 -60 20 -94 20 -568 l0 -504 -130 0 -130 0 0 441 0 441 -30 30
c-26 25 -36 29 -62 24 -18 -3 -40 -14 -50 -23 -17 -15 -18 -44 -18 -465 l0
-448 -520 0 -520 0 0 443 c0 485 1 479 -59 492 -38 8 -86 -16 -95 -47 -3 -13
-6 -218 -6 -455 l0 -433 -130 0 -131 0 3 533 3 532 33 63 c58 110 130 175 244
218 57 21 80 23 238 23 l176 1 -1 -77z m305 55 c28 -31 35 -63 20 -99 -35 -84
-149 -74 -166 15 -6 35 15 90 38 99 34 14 88 6 108 -15z m-30 -323 c0 -2 14
-115 30 -250 l30 -245 -42 -65 c-24 -35 -45 -65 -48 -65 -3 0 -24 30 -48 66
l-43 66 30 227 c40 286 36 271 66 271 14 0 25 -2 25 -5z m-710 -1320 l0 -135
-53 0 c-70 0 -115 14 -150 47 -45 43 -57 75 -57 153 l0 70 130 0 130 0 0 -135z
m1620 70 c0 -136 -69 -205 -206 -205 l-54 0 0 135 0 135 130 0 130 0 0 -65z
m-1020 -1645 l0 -90 -345 0 -345 0 0 59 c0 122 -5 120 383 121 l307 0 0 -90z
m799 79 c41 -15 51 -35 51 -108 l0 -61 -345 0 -345 0 0 90 0 90 304 0 c195 0
314 -4 335 -11z"/>
<path d="M4265 5109 c-279 -24 -535 -226 -629 -496 -76 -216 -56 -441 55 -643
56 -100 179 -223 279 -279 208 -115 450 -133 660 -48 137 56 260 150 260 201
0 41 -16 63 -55 76 -39 13 -30 17 -154 -67 -82 -55 -156 -82 -262 -96 -110
-14 -229 7 -339 60 -98 47 -220 167 -267 263 -69 142 -78 305 -26 463 86 261
315 418 588 404 223 -11 410 -127 509 -317 37 -72 66 -175 66 -237 0 -57 17
-98 46 -112 37 -17 60 -14 90 13 26 22 28 28 26 95 -10 266 -176 522 -417 642
-135 66 -272 91 -430 78z"/>
<path d="M4250 4754 c-113 -49 -176 -192 -136 -310 l16 -48 -36 -36 c-58 -55
-74 -100 -74 -207 0 -110 14 -133 78 -133 59 0 75 24 82 126 7 119 14 124 171
124 108 0 120 -2 144 -23 24 -20 28 -32 34 -111 8 -100 19 -116 82 -116 29 0
43 6 59 28 20 24 22 36 18 112 -3 69 -9 94 -32 136 -15 29 -41 61 -56 73 -28
20 -29 22 -15 56 18 41 19 124 4 180 -15 54 -100 139 -154 154 -56 15 -143 13
-185 -5z m165 -169 c33 -32 33 -84 2 -121 -30 -35 -98 -38 -130 -5 -30 29 -28
93 3 127 32 33 92 33 125 -1z"/>
<path d="M2946 4405 c-82 -33 -128 -76 -174 -160 l-27 -50 -5 -775 -5 -775
-147 -5 c-121 -4 -151 -8 -168 -22 -31 -27 -30 -80 3 -115 19 -22 28 -23 169
-23 l148 0 0 -760 c0 -741 0 -761 21 -814 26 -72 93 -144 166 -181 57 -30 60
-30 247 -33 163 -3 190 -1 206 13 41 37 32 112 -16 134 -15 7 -86 11 -178 11
-140 0 -156 2 -196 23 -30 16 -51 37 -67 67 l-23 43 0 749 0 748 229 0 c210 0
231 2 252 19 33 27 33 95 0 122 -21 17 -42 19 -252 19 l-229 0 0 751 c0 739 0
752 21 788 11 20 36 48 56 61 34 24 46 25 207 30 94 3 178 9 187 13 19 9 39
49 39 78 0 11 -11 31 -25 44 -24 25 -26 25 -202 25 -165 0 -182 -2 -237 -25z"/>
<path d="M4183 3306 c-264 -61 -479 -264 -565 -536 -20 -65 -23 -94 -22 -215
1 -125 4 -149 28 -220 109 -321 398 -535 723 -535 126 0 218 22 340 81 83 39
118 64 179 123 70 67 76 76 70 102 -9 37 -50 74 -82 74 -17 0 -48 -20 -92 -60
-245 -223 -612 -220 -836 6 -170 171 -222 397 -145 631 75 227 323 403 569
403 221 0 440 -139 539 -340 39 -80 44 -103 67 -268 12 -84 123 -99 152 -21
13 35 -3 174 -31 261 -74 233 -254 414 -492 494 -66 22 -102 27 -210 30 -88 2
-150 -1 -192 -10z"/>
<path d="M4250 2959 c-63 -28 -107 -74 -130 -136 -24 -64 -25 -117 -5 -178
l16 -45 -37 -32 c-57 -50 -74 -97 -74 -209 0 -110 13 -133 76 -133 57 0 78 30
82 116 4 84 14 111 49 127 30 14 212 15 248 1 34 -13 55 -64 55 -134 0 -69 6
-83 42 -102 23 -12 36 -13 63 -4 46 15 59 51 53 148 -5 89 -29 143 -82 190
-35 31 -35 31 -21 66 35 84 6 215 -61 278 -72 67 -187 87 -274 47z m143 -151
c33 -17 46 -39 47 -79 0 -44 -32 -77 -82 -85 -27 -5 -40 -1 -64 19 -24 21 -29
32 -28 68 2 70 67 110 127 77z"/>
<path d="M4194 1516 c-412 -94 -671 -493 -588 -904 24 -120 98 -263 184 -355
73 -78 172 -151 254 -187 134 -60 327 -78 476 -45 132 30 323 135 349 192 20
45 -28 113 -81 113 -7 0 -49 -25 -93 -55 -198 -136 -424 -151 -635 -43 -142
73 -249 204 -296 363 -26 87 -23 239 6 330 34 109 79 184 155 260 184 185 449
226 690 106 103 -52 162 -103 224 -197 54 -79 101 -207 101 -272 0 -55 18
-110 40 -122 30 -16 76 -12 101 9 22 18 24 26 22 103 -8 310 -219 584 -528
684 -100 32 -285 42 -381 20z"/>
<path d="M4279 1181 c-75 -23 -132 -76 -159 -148 -24 -64 -25 -117 -5 -178
l16 -45 -35 -30 c-58 -51 -76 -102 -76 -212 0 -92 1 -97 26 -117 30 -24 52
-26 88 -10 31 15 46 56 46 130 0 47 5 63 24 86 23 27 29 28 122 32 170 6 204
-19 204 -149 0 -51 4 -65 25 -85 26 -27 51 -31 89 -14 37 17 49 58 44 147 -5
89 -29 143 -83 190 -35 31 -35 32 -20 61 9 18 15 56 15 93 -1 113 -59 201
-157 238 -55 20 -118 24 -164 11z m139 -187 c52 -59 8 -145 -75 -144 -61 1
-95 62 -69 124 25 61 99 71 144 20z"/>
</g>
</svg>
