<?xml version="1.0" standalone="no"?>
<!DOCTYPE svg PUBLIC "-//W3C//DTD SVG 20010904//EN"
 "http://www.w3.org/TR/2001/REC-SVG-20010904/DTD/svg10.dtd">
<svg version="1.0" xmlns="http://www.w3.org/2000/svg"
 width="512.000000pt" height="512.000000pt" viewBox="0 0 512.000000 512.000000"
 preserveAspectRatio="xMidYMid meet">

<g transform="translate(0.000000,512.000000) scale(0.100000,-0.100000)"
fill="#000000" stroke="none">
<path d="M2533 4830 c-12 -5 -26 -18 -32 -29 -7 -13 -11 -167 -11 -457 l0
-437 -258 -259 -257 -258 -806 0 c-755 0 -807 -1 -821 -17 -8 -10 -90 -188
-182 -395 -148 -336 -166 -380 -155 -400 20 -38 41 -47 102 -48 l57 0 0 -1049
0 -1049 -60 -4 c-44 -3 -66 -10 -82 -25 -26 -26 -26 -69 -1 -94 18 -19 69 -19
2533 -19 2464 0 2515 0 2533 19 25 25 25 68 -1 94 -16 15 -38 22 -82 25 l-60
4 0 1049 0 1049 59 0 c69 0 104 21 104 63 0 32 -320 754 -345 779 -17 17 -64
18 -820 18 l-803 0 -257 258 -258 259 0 191 0 191 259 3 c238 3 261 5 280 22
20 18 21 28 21 243 0 127 -4 232 -10 243 -5 10 -24 23 -41 29 -39 13 -573 14
-606 1z m515 -267 l-3 -128 -207 -3 -208 -2 0 130 0 130 210 0 211 0 -3 -127z
m142 -1408 l625 -625 305 0 c298 0 304 0 327 22 29 27 29 65 1 95 -21 23 -22
23 -302 23 l-280 0 -283 282 c-156 156 -283 286 -283 290 0 5 311 7 690 6
l691 -3 124 -280 c69 -153 125 -283 125 -287 0 -4 -51 -8 -114 -8 -132 0 -159
-12 -159 -70 0 -48 31 -70 99 -70 l54 0 0 -1050 0 -1050 -770 0 -770 0 0 129
c0 71 -3 137 -6 146 -10 25 -58 45 -109 45 l-45 0 0 339 0 340 -26 20 c-26 21
-36 21 -524 21 -488 0 -498 0 -524 -21 l-26 -20 0 -340 0 -339 -54 0 c-39 0
-60 -6 -80 -21 -26 -20 -26 -21 -26 -160 l0 -139 -770 0 -770 0 0 1050 0 1050
497 0 498 0 625 625 c344 344 627 625 630 625 3 0 286 -281 630 -625z m-1370
87 c0 -4 -127 -134 -283 -290 l-283 -282 -532 0 c-296 0 -532 4 -532 9 0 5 48
116 106 247 59 132 115 258 125 282 l18 42 691 0 c379 0 690 -3 690 -8z m670
-2202 l0 -290 -170 0 -170 0 0 290 0 290 170 0 170 0 0 -290z m480 0 l0 -290
-170 0 -170 0 0 290 0 290 170 0 170 0 0 -290z m158 -522 l3 -88 -571 0 -570
0 0 90 0 90 568 -2 567 -3 3 -87z"/>
<path d="M2423 2975 c-106 -29 -174 -68 -252 -146 -102 -102 -150 -211 -158
-359 -10 -173 35 -290 161 -416 117 -116 229 -164 386 -164 155 0 269 48 386
165 117 116 164 226 164 383 0 151 -54 276 -165 387 -79 80 -161 127 -256 150
-79 18 -197 18 -266 0z m218 -135 c77 -15 136 -46 200 -107 100 -95 144 -226
122 -358 -15 -86 -46 -149 -106 -212 -163 -173 -421 -178 -587 -12 -157 157
-158 411 -2 572 103 105 227 144 373 117z"/>
<path d="M2615 2548 c-126 -63 -125 -62 -125 -188 0 -98 2 -108 23 -128 30
-28 68 -28 95 1 18 19 22 35 22 93 l0 71 52 24 c107 49 133 95 83 144 -33 34
-56 31 -150 -17z"/>
<path d="M510 2250 c-19 -19 -20 -33 -20 -290 0 -257 1 -271 20 -290 20 -20
33 -20 608 -20 l589 0 21 23 c21 23 22 30 22 286 l0 262 -25 24 -24 25 -586 0
c-572 0 -585 0 -605 -20z m540 -290 l0 -170 -210 0 -210 0 0 170 0 170 210 0
210 0 0 -170z m560 0 l0 -170 -210 0 -210 0 0 170 0 170 210 0 210 0 0 -170z"/>
<path d="M3391 2244 c-20 -25 -21 -39 -21 -284 0 -245 1 -259 21 -284 l20 -26
588 0 c515 0 589 2 609 16 22 15 22 17 22 288 0 272 0 273 -23 294 l-23 22
-586 0 -587 0 -20 -26z m539 -284 l0 -170 -210 0 -210 0 0 170 0 170 210 0
210 0 0 -170z m560 0 l0 -170 -210 0 -210 0 0 170 0 170 210 0 210 0 0 -170z"/>
<path d="M512 1450 c-22 -20 -22 -26 -22 -294 0 -333 -12 -308 150 -304 108 3
114 4 132 28 16 21 17 31 8 57 -13 36 -49 53 -111 53 l-39 0 0 170 0 170 210
0 210 0 0 -170 c0 -137 -3 -170 -14 -170 -7 0 -25 -9 -40 -21 -30 -24 -34 -63
-10 -97 l15 -22 353 0 353 0 21 23 c21 23 22 30 22 275 0 266 -4 291 -47 311
-17 8 -198 11 -597 11 -562 0 -573 0 -594 -20z m1098 -290 l0 -170 -210 0
-210 0 0 170 0 170 210 0 210 0 0 -170z"/>
<path d="M3395 1445 l-25 -24 0 -256 c0 -252 4 -287 34 -307 6 -4 277 -8 602
-8 560 0 592 1 607 18 15 16 17 51 17 290 l0 271 -26 20 c-26 21 -35 21 -606
21 l-579 0 -24 -25z m535 -285 l0 -170 -210 0 -210 0 0 170 0 170 210 0 210 0
0 -170z m560 0 l0 -170 -210 0 -210 0 0 170 0 170 210 0 210 0 0 -170z"/>
</g>
</svg>
