<svg width="15" height="18" viewBox="0 0 15 18" fill="none" xmlns="http://www.w3.org/2000/svg">
<path d="M7.51796 17.5C5.63098 17.4055 3.75137 17.3037 1.94547 16.7365C1.43687 16.5766 0.957759 16.3221 0.500756 16.053C0.146948 15.8422 0.00689887 15.4786 -0.000472135 15.0569C-0.00784314 13.879 -0.00784314 12.7083 0.515498 11.6031C1.13466 10.2943 2.11501 9.38537 3.5155 8.9491C3.65555 8.90547 3.88405 8.9491 4.00198 9.03636C6.16169 10.7015 9.05112 10.7233 11.1887 9.06544C11.373 8.92002 11.5204 8.92002 11.7121 8.99273C13.4664 9.68349 14.513 10.9632 14.8595 12.7665C15.0069 13.5518 14.9848 14.3807 14.9995 15.1878C15.0069 15.6749 14.6752 15.9876 14.2845 16.2203C13.4442 16.7293 12.5008 16.9692 11.5425 17.0928C10.2084 17.2746 8.85948 17.3691 7.51796 17.5ZM6.64818 0.616339C4.12729 1.07442 2.4467 3.59025 3.06587 5.98246C3.77348 8.73824 6.9209 10.207 9.58184 9.02181C11.4983 8.15654 12.6187 6.17151 12.2501 4.28101C11.8153 2.05603 9.94302 0.536356 7.62852 0.5C7.3042 0.536356 6.9725 0.558169 6.64818 0.616339Z" fill="#31343E"/>
</svg>
