<svg width="20" height="18" viewBox="0 0 20 18" fill="none" xmlns="http://www.w3.org/2000/svg">
<path d="M6.2918 17.1256C13.8371 17.1256 17.9652 10.8729 17.9652 5.45216C17.9652 5.27638 17.9613 5.09669 17.9535 4.92091C18.7566 4.34016 19.4496 3.62082 20 2.79669C19.2521 3.12944 18.458 3.34676 17.6449 3.44122C18.5011 2.92803 19.1421 2.12184 19.4492 1.17208C18.6438 1.64941 17.763 1.98612 16.8445 2.16779C16.2257 1.51024 15.4075 1.07487 14.5164 0.928986C13.6253 0.783098 12.711 0.934819 11.9148 1.36069C11.1186 1.78656 10.4848 2.46286 10.1115 3.28504C9.73825 4.10721 9.64619 5.02946 9.84961 5.90919C8.21874 5.82735 6.62328 5.4037 5.16665 4.66569C3.71002 3.92769 2.42474 2.89181 1.39414 1.62521C0.870333 2.52831 0.710047 3.59698 0.945859 4.61402C1.18167 5.63106 1.79589 6.52015 2.66367 7.1006C2.01219 7.07991 1.37498 6.90451 0.804688 6.58888V6.63966C0.804104 7.5874 1.13175 8.5061 1.73192 9.23958C2.3321 9.97307 3.16777 10.4761 4.09687 10.6631C3.49338 10.8282 2.85999 10.8523 2.2457 10.7334C2.50788 11.5485 3.01798 12.2614 3.70481 12.7726C4.39164 13.2838 5.22093 13.5678 6.07695 13.585C4.62369 14.7265 2.82848 15.3457 0.980469 15.3428C0.652739 15.3423 0.325333 15.3222 0 15.2826C1.87738 16.4871 4.06128 17.1268 6.2918 17.1256Z" fill="#475467"/>
</svg>
