<svg width="17" height="20" viewBox="0 0 17 20" fill="none" xmlns="http://www.w3.org/2000/svg">
<path d="M2.16211 3.4907C2.43561 3.4907 2.65442 3.4907 2.87322 3.4907C4.13134 3.4907 5.33476 3.3813 6.53818 2.94369C7.41339 2.67019 8.1792 2.23258 8.89031 1.63087C8.99972 1.57617 9.05442 1.57617 9.10912 1.63087C10.2031 2.61548 11.5707 3.10779 12.9929 3.3266C13.8681 3.4907 14.7433 3.4907 15.6732 3.4907C15.7279 3.4907 15.7826 3.4907 15.8373 3.4907C15.8373 3.5454 15.8373 3.6001 15.8373 3.6001C15.8373 5.84283 15.8373 8.14027 15.8373 10.383C15.8373 11.4223 15.5091 12.4069 14.9621 13.3369C14.4151 14.2668 13.7587 15.0873 12.9929 15.7984C12.0083 16.7283 10.9689 17.4941 9.82023 18.0958C9.60143 18.2052 9.38262 18.2599 9.10912 18.3693C9.05442 18.3693 8.99972 18.3693 8.94501 18.3693C8.39801 18.2599 7.9057 17.9864 7.46809 17.7129C6.04587 16.8377 4.78775 15.7437 3.74843 14.4309C3.09202 13.6104 2.59972 12.6804 2.32621 11.6411C2.21681 11.2035 2.16211 10.7659 2.16211 10.383C2.16211 8.14027 2.16211 5.89754 2.16211 3.6548C2.16211 3.5454 2.16211 3.5454 2.16211 3.4907Z" stroke="#00847F" stroke-width="1.5" stroke-miterlimit="10"/>
<path d="M5.75195 7.09963C5.87695 7.09963 5.97695 7.09963 6.07695 7.09963C6.65195 7.09963 7.20195 7.05073 7.75195 6.85513C8.15195 6.73289 8.50195 6.53729 8.82695 6.26834C8.87695 6.24389 8.90195 6.24389 8.92695 6.26834C9.42695 6.70844 10.052 6.92848 10.702 7.02628C11.102 7.09963 11.502 7.09963 11.927 7.09963C11.952 7.09963 11.977 7.09963 12.002 7.09963C12.002 7.12408 12.002 7.14853 12.002 7.14853C12.002 8.15098 12.002 9.17787 12.002 10.1803C12.002 10.6449 11.852 11.085 11.602 11.5006C11.352 11.9163 11.052 12.283 10.702 12.6009C10.252 13.0165 9.77695 13.3588 9.25195 13.6278C9.15195 13.6767 9.05195 13.7011 8.92695 13.75C8.90195 13.75 8.87695 13.75 8.85195 13.75C8.60195 13.7011 8.37695 13.5789 8.17695 13.4566C7.52695 13.0654 6.95195 12.5764 6.47695 11.9896C6.17695 11.6229 5.95195 11.2072 5.82695 10.7427C5.77695 10.5471 5.75195 10.3515 5.75195 10.1803C5.75195 9.17787 5.75195 8.17543 5.75195 7.17298C5.75195 7.12408 5.75195 7.12408 5.75195 7.09963Z" stroke="#00847F" stroke-width="1.5" stroke-miterlimit="10"/>
</svg>
