<svg width="33" height="35" viewBox="0 0 33 35" fill="none" xmlns="http://www.w3.org/2000/svg">
<path d="M18.377 9.75C20.448 9.75 22.127 8.07107 22.127 6C22.127 3.92893 20.448 2.25 18.377 2.25C16.3059 2.25 14.627 3.92893 14.627 6C14.627 8.07107 16.3059 9.75 18.377 9.75Z" stroke="white" stroke-width="3.5" stroke-miterlimit="10" stroke-linecap="round" stroke-linejoin="round"/>
<path d="M7.87695 27.75H28.877" stroke="white" stroke-width="3.5" stroke-miterlimit="10" stroke-linecap="round" stroke-linejoin="round"/>
<path d="M1.87598 33H34.876" stroke="white" stroke-width="3.5" stroke-miterlimit="10" stroke-linecap="round" stroke-linejoin="round"/>
<path d="M31.875 15L28.6102 17.6122C28.4738 17.7214 28.3035 17.7795 28.1288 17.7765C27.9541 17.7735 27.7859 17.7096 27.6532 17.5958L22.875 13.5H13.875L9.09675 17.5958C8.96414 17.7096 8.79595 17.7735 8.62122 17.7765C8.4465 17.7795 8.2762 17.7214 8.13975 17.6122L4.875 15" stroke="white" stroke-width="3.5" stroke-miterlimit="10" stroke-linecap="round" stroke-linejoin="round"/>
<path d="M13.875 13.6074V24.0002" stroke="white" stroke-width="3.5" stroke-miterlimit="10" stroke-linecap="round" stroke-linejoin="round"/>
<path d="M22.875 13.6074V24.0002" stroke="white" stroke-width="3.5" stroke-miterlimit="10" stroke-linecap="round" stroke-linejoin="round"/>
</svg>
