<svg width="37" height="36" viewBox="0 0 37 36" fill="none" xmlns="http://www.w3.org/2000/svg">
<g clip-path="url(#clip0_851_10024)">
<path d="M24.3398 16.9354L22.6523 14.0127" stroke="white" stroke-width="3.5" stroke-miterlimit="10" stroke-linecap="round" stroke-linejoin="round"/>
<path d="M13.543 4.98227L19.3885 1.6084L25.576 12.3251L22.6532 14.0126L19.7293 15.7001L13.543 4.98227Z" stroke="white" stroke-width="3.5" stroke-miterlimit="10" stroke-linecap="round" stroke-linejoin="round"/>
<path d="M11.403 26.7434L9.94839 24.5576C9.21928 23.4106 8.72856 22.1285 8.50548 20.7878C8.2824 19.4471 8.33153 18.0752 8.64994 16.7539C8.96835 15.4326 9.54953 14.1889 10.3588 13.097C11.1681 12.0051 12.189 11.0873 13.3605 10.3983L21.7103 5.63281" stroke="white" stroke-width="3.5" stroke-miterlimit="10" stroke-linecap="round" stroke-linejoin="round"/>
<path d="M22.9863 25.5094L32.5837 19.9688" stroke="white" stroke-width="3.5" stroke-miterlimit="10" stroke-linecap="round" stroke-linejoin="round"/>
<path d="M35.375 34.875H8.375V32.0625C8.375 30.4215 9.0269 28.8477 10.1873 27.6873C11.3477 26.5269 12.9215 25.875 14.5625 25.875C16.2035 25.875 17.7773 26.5269 18.9377 27.6873C20.0981 28.8477 20.75 30.4215 20.75 32.0625L20.6881 34.875" stroke="white" stroke-width="3.5" stroke-miterlimit="10" stroke-linecap="round" stroke-linejoin="round"/>
</g>
<defs>
<clipPath id="clip0_851_10024">
<rect width="36" height="36" fill="white" transform="translate(0.5)"/>
</clipPath>
</defs>
</svg>
