<svg width="36" height="36" viewBox="0 0 36 36" fill="none" xmlns="http://www.w3.org/2000/svg">
<g clip-path="url(#clip0_851_10001)">
<path d="M8.02441 17.4189H11.0844C12.0348 17.4189 12.9762 17.6079 13.8528 17.9733L20.853 20.8911C22.2354 21.4671 22.9194 23.0277 22.4082 24.4353C21.9078 25.8105 20.4354 26.5683 19.026 26.1777L13.4226 24.6207" stroke="white" stroke-width="3.5" stroke-linecap="round" stroke-linejoin="round"/>
<path d="M22.4099 24.4341L30.3155 21.3021C31.8905 20.6613 33.6797 21.4839 34.2161 23.0967C34.6787 24.4863 34.0505 26.0055 32.7401 26.6589L23.1281 31.4649C21.5171 32.2713 19.6631 32.4423 17.9297 31.9473L8.02246 29.1159" stroke="white" stroke-width="3.5" stroke-linecap="round" stroke-linejoin="round"/>
<path d="M33.19 6.8386C32.9362 4.7992 31.2838 3.4492 29.2282 3.4852C27.9502 3.5086 26.881 4.1584 26.0242 5.2294C25.369 4.1386 24.0604 3.4834 22.7518 3.4834C20.5702 3.4834 18.8242 5.2294 18.8242 7.411C19.0042 11.3908 22.786 14.7514 24.9424 16.2814C25.5814 16.735 26.431 16.7134 27.052 16.2382C29.1454 14.6326 33.6688 10.6834 33.19 6.8386Z" stroke="white" stroke-width="3.5"/>
</g>
<defs>
<clipPath id="clip0_851_10001">
<rect width="36" height="36" fill="white"/>
</clipPath>
</defs>
</svg>
