<svg width="37" height="36" viewBox="0 0 37 36" fill="none" xmlns="http://www.w3.org/2000/svg">
<path d="M19.4971 30.1023C19.8371 30.1023 20.1751 30.0123 20.4851 29.8343C21.7711 29.0923 23.9491 28.1403 26.7671 28.1443C28.5651 28.1463 30.1011 28.5383 31.3071 29.0143C32.6031 29.5243 33.9951 28.5343 33.9951 27.1403V8.97432C33.9951 8.26632 33.6331 7.61432 33.0231 7.25432C31.7491 6.50232 29.5711 5.52832 26.7431 5.52832C22.9631 5.52832 20.3471 7.27232 19.4951 7.89232" stroke="white" stroke-width="3.5" stroke-linecap="round" stroke-linejoin="round"/>
<path d="M19.498 30.1023C19.158 30.1023 18.82 30.0123 18.51 29.8343C17.224 29.0923 15.046 28.1403 12.228 28.1443C10.43 28.1463 8.894 28.5383 7.688 29.0143C6.392 29.5243 5 28.5403 5 27.1483C5 21.9623 5 12.2043 5 8.96827C5 8.26027 5.362 7.61627 5.972 7.25627C7.246 6.50427 9.424 5.53027 12.252 5.53027C16.032 5.53027 18.648 7.27427 19.5 7.89427V30.1023H19.498Z" stroke="white" stroke-width="3.5" stroke-linecap="round" stroke-linejoin="round"/>
</svg>
